STARTFONT 2.1
FONT -FontForge-Bitstream Vera Sans-Book-R-Normal-Sans--60-580-75-75-P-360-ISO8859-1
SIZE 58 75 75
FONTBOUNDINGBOX 87 70 -11 -14
COMMENT "Generated by fontforge, http://fontforge.sourceforge.net"
COMMENT "Copyright (c) 2003 by Bitstream, Inc. All Rights Reserved."
STARTPROPERTIES 40
FOUNDRY "FontForge"
FAMILY_NAME "Bitstream Vera Sans"
WEIGHT_NAME "Book"
SLANT "R"
SETWIDTH_NAME "Normal"
ADD_STYLE_NAME "Sans"
PIXEL_SIZE 60
POINT_SIZE 580
RESOLUTION_X 75
RESOLUTION_Y 75
SPACING "P"
AVERAGE_WIDTH 360
CHARSET_REGISTRY "ISO8859"
CHARSET_ENCODING "1"
FONTNAME_REGISTRY ""
CHARSET_COLLECTIONS "ISO8859-9 ISOLatin1Encoding"
FONT_NAME "BitstreamVeraSans-Roman"
FACE_NAME "Bitstream Vera Sans"
COPYRIGHT "Copyright (c) 2003 by Bitstream, Inc. All Rights Reserved."
FONT_VERSION "Release 1.10"
FONT_ASCENT 46
FONT_DESCENT 14
UNDERLINE_POSITION -8
UNDERLINE_THICKNESS 5
X_HEIGHT 32
CAP_HEIGHT 43
RAW_ASCENT 759
RAW_DESCENT 240
NORM_SPACE 19
RELATIVE_WEIGHT 40
RELATIVE_SETWIDTH 50
SUPERSCRIPT_X 0
SUPERSCRIPT_Y 17
SUPERSCRIPT_SIZE 35
SUBSCRIPT_X 0
SUBSCRIPT_Y -13
SUBSCRIPT_SIZE 35
FIGURE_WIDTH 38
AVG_LOWERCASE_WIDTH 344
AVG_UPPERCASE_WIDTH 401
ENDPROPERTIES
CHARS 268
STARTCHAR space
ENCODING 32
SWIDTH 317 0
DWIDTH 19 0
BBX 1 1 0 0
BITMAP
00
ENDCHAR
STARTCHAR exclam
ENCODING 33
SWIDTH 400 0
DWIDTH 24 0
BBX 6 44 9 0
BITMAP
FC
FC
FC
FC
FC
FC
FC
FC
FC
FC
FC
FC
FC
FC
FC
FC
FC
FC
FC
FC
FC
FC
FC
FC
FC
FC
FC
FC
7C
78
00
00
00
00
00
00
00
FC
FC
FC
FC
FC
FC
FC
ENDCHAR
STARTCHAR quotedbl
ENCODING 34
SWIDTH 459 0
DWIDTH 28 0
BBX 16 16 6 28
BITMAP
F81F
F81F
F81F
F81F
F81F
F81F
F81F
F81F
F81F
F81F
F81F
F81F
F81F
F81F
F81F
F81F
ENDCHAR
STARTCHAR numbersign
ENCODING 35
SWIDTH 837 0
DWIDTH 50 0
BBX 41 43 5 0
BITMAP
00007C03E000
00007803E000
0000F803C000
0000F807C000
0000F007C000
0000F007C000
0001F0078000
0001F00F8000
0001E00F8000
0001E00F8000
0003E01F0000
0003E01F0000
1FFFFFFFFF80
1FFFFFFFFF80
1FFFFFFFFF80
1FFFFFFFFF80
1FFFFFFFFF80
0007803E0000
000F803C0000
000F807C0000
000F807C0000
000F007C0000
001F00780000
001F00F80000
001E00F80000
003E00F00000
FFFFFFFFFC00
FFFFFFFFFC00
FFFFFFFFFC00
FFFFFFFFFC00
FFFFFFFFFC00
007C03E00000
007C03E00000
007803E00000
00F803C00000
00F807C00000
00F807C00000
00F007C00000
01F007800000
01F00F800000
01F00F800000
01E00F800000
03E00F000000
ENDCHAR
STARTCHAR dollar
ENCODING 36
SWIDTH 636 0
DWIDTH 38 0
BBX 28 55 5 -9
BITMAP
000E0000
000E0000
000E0000
000E0000
000E0000
000E0000
000E0000
007FF000
03FFFF00
0FFFFF80
1FFFFF80
3FFFFF80
7F8E0F80
7E0E0080
FC0E0000
F80E0000
F80E0000
F80E0000
F80E0000
F80E0000
FC0E0000
7E0E0000
7F8E0000
3FFE0000
1FFFC000
0FFFF800
07FFFE00
00FFFF80
000FFFC0
000E7FE0
000E0FE0
000E03E0
000E03F0
000E01F0
000E01F0
000E01F0
000E01F0
000E03F0
800E03E0
E00E0FE0
FE0E3FC0
FFFFFFC0
FFFFFF80
7FFFFF00
0FFFFC00
01FFC000
000E0000
000E0000
000E0000
000E0000
000E0000
000E0000
000E0000
000E0000
000E0000
ENDCHAR
STARTCHAR percent
ENCODING 37
SWIDTH 950 0
DWIDTH 57 0
BBX 50 46 3 -1
BITMAP
01F800000F8000
07FE00001F0000
1FFF80001E0000
3FFF80003E0000
3F0FC0003C0000
7E07E0007C0000
7C03E000F80000
7C03E000F00000
F801F001F00000
F801F001E00000
F801F003E00000
F801F007C00000
F801F007C00000
F801F00F800000
F801F00F000000
F801F01F000000
7C03E03E000000
7C03E03E000000
7E07E07C000000
3F0FC078000000
3FFFC0F8000000
1FFF80F0000000
07FE01F007E000
01F803E01FF800
000003C07FFE00
000007C0FFFE00
00000780FC3F00
00000F81F81F80
00001F01F00F80
00001F01F00F80
00003E03E007C0
00003C03E007C0
00007C03E007C0
0000F803E007C0
0000F803E007C0
0001F003E007C0
0001E003E007C0
0003E003E007C0
0003C001F00F80
0007C001F00F80
000F8001F81F80
000F0000FC3F00
001F0000FFFE00
001E00007FFE00
003E00001FF800
007C000007E000
ENDCHAR
STARTCHAR ampersand
ENCODING 38
SWIDTH 779 0
DWIDTH 47 0
BBX 41 46 3 -1
BITMAP
0007FC000000
003FFFC00000
007FFFE00000
00FFFFE00000
01FFFFE00000
03FC03E00000
03F000600000
07E000000000
07E000000000
07C000000000
07C000000000
07C000000000
07C000000000
07E000000000
03E000000000
03F000000000
03F800000000
01FC00000000
00FE00000000
03FF00000000
07FF80000000
0FDFC0000000
1FCFE0003E00
3F87F0003E00
3F03F8003E00
7E01FC007C00
7E00FE007C00
7C007F007C00
FC003F80FC00
F8001FC0F800
F8000FE0F800
F80007F1F000
F80003F9F000
F80001FDE000
FC0000FFE000
FC00007FC000
7E00003F8000
7E00003FC000
3F8000FFE000
3FC001FFF000
1FF80FFFF800
0FFFFFF9FC00
07FFFFE0FE00
01FFFFC07F00
00FFFF007F80
001FF8000000
ENDCHAR
STARTCHAR quotesingle
ENCODING 39
SWIDTH 274 0
DWIDTH 17 0
BBX 5 16 6 28
BITMAP
F8
F8
F8
F8
F8
F8
F8
F8
F8
F8
F8
F8
F8
F8
F8
F8
ENDCHAR
STARTCHAR parenleft
ENCODING 40
SWIDTH 390 0
DWIDTH 23 0
BBX 13 54 5 -8
BITMAP
00F8
01F0
01F0
03E0
03E0
07C0
07C0
0F80
0F80
1F00
1F00
1F00
3E00
3E00
3E00
7C00
7C00
7C00
7C00
7C00
F800
F800
F800
F800
F800
F800
F800
F800
F800
F800
F800
F800
F800
F800
7C00
7C00
7C00
7C00
3C00
3E00
3E00
3E00
1F00
1F00
1F00
0F80
0F80
07C0
07C0
03E0
03E0
01F0
01F0
00F8
ENDCHAR
STARTCHAR parenright
ENCODING 41
SWIDTH 390 0
DWIDTH 23 0
BBX 13 54 5 -8
BITMAP
F800
7C00
7C00
3E00
3E00
1F00
1F00
0F80
0F80
07C0
07C0
07C0
03E0
03E0
03E0
01E0
01F0
01F0
01F0
01F0
00F8
00F8
00F8
00F8
00F8
00F8
00F8
00F8
00F8
00F8
00F8
00F8
00F8
00F8
01F0
01F0
01F0
01F0
01E0
03E0
03E0
03E0
07C0
07C0
07C0
0F80
0F80
1F00
1F00
3E00
3E00
7C00
7C00
F800
ENDCHAR
STARTCHAR asterisk
ENCODING 42
SWIDTH 500 0
DWIDTH 30 0
BBX 27 28 1 17
BITMAP
000E0000
000E0000
000E0000
000E0000
000E0000
600E00C0
700E01C0
FC0E07E0
7F0E1FC0
1F8E3F00
0FEEFE00
03FFF800
00FFE000
003F8000
003F8000
00FFE000
03FFF800
07EEFC00
1F8E3F00
7F0E1FC0
FC0E07E0
700E01C0
600E00C0
000E0000
000E0000
000E0000
000E0000
000E0000
ENDCHAR
STARTCHAR plus
ENCODING 43
SWIDTH 837 0
DWIDTH 50 0
BBX 37 37 6 0
BITMAP
0000F80000
0000F80000
0000F80000
0000F80000
0000F80000
0000F80000
0000F80000
0000F80000
0000F80000
0000F80000
0000F80000
0000F80000
0000F80000
0000F80000
0000F80000
0000F80000
FFFFFFFFF8
FFFFFFFFF8
FFFFFFFFF8
FFFFFFFFF8
FFFFFFFFF8
0000F80000
0000F80000
0000F80000
0000F80000
0000F80000
0000F80000
0000F80000
0000F80000
0000F80000
0000F80000
0000F80000
0000F80000
0000F80000
0000F80000
0000F80000
0000F80000
ENDCHAR
STARTCHAR comma
ENCODING 44
SWIDTH 317 0
DWIDTH 19 0
BBX 7 14 5 -7
BITMAP
3E
3E
3E
3E
3E
3E
3C
7C
7C
78
78
78
F8
F0
ENDCHAR
STARTCHAR hyphen
ENCODING 45
SWIDTH 360 0
DWIDTH 22 0
BBX 16 5 3 14
BITMAP
FFFF
FFFF
FFFF
FFFF
FFFF
ENDCHAR
STARTCHAR period
ENCODING 46
SWIDTH 317 0
DWIDTH 19 0
BBX 5 7 7 0
BITMAP
F8
F8
F8
F8
F8
F8
F8
ENDCHAR
STARTCHAR slash
ENCODING 47
SWIDTH 336 0
DWIDTH 20 0
BBX 20 49 0 -5
BITMAP
0001F0
0003F0
0003E0
0003E0
0007E0
0007C0
0007C0
0007C0
000F80
000F80
000F80
001F80
001F00
001F00
003F00
003E00
003E00
007E00
007C00
007C00
007C00
00FC00
00F800
00F800
01F800
01F000
01F000
03F000
03E000
03E000
03E000
07E000
07C000
07C000
0FC000
0F8000
0F8000
1F8000
1F0000
1F0000
1F0000
3F0000
3E0000
3E0000
7E0000
7C0000
7C0000
FC0000
F80000
ENDCHAR
STARTCHAR zero
ENCODING 48
SWIDTH 636 0
DWIDTH 38 0
BBX 30 46 4 -1
BITMAP
001FE000
007FF800
01FFFE00
03FFFF00
07FFFF80
0FF03FC0
1FC00FE0
1F8007E0
3F0003F0
3F0003F0
3E0001F0
7E0001F8
7C0000F8
7C0000F8
7C0000F8
FC0000F8
F800007C
F800007C
F800007C
F800007C
F800007C
F800007C
F800007C
F800007C
F800007C
F800007C
F800007C
F800007C
F800007C
F800007C
7C0000F8
7C0000F8
7C0000F8
7C0000F8
7E0001F8
3E0001F0
3F0003F0
3F0003F0
1F8007E0
1FC00FE0
0FF03FC0
07FFFF80
03FFFF00
01FFFE00
00FFFC00
001FE000
ENDCHAR
STARTCHAR one
ENCODING 49
SWIDTH 636 0
DWIDTH 38 0
BBX 26 44 6 0
BITMAP
00FF0000
1FFF0000
FFFF0000
FFFF0000
FFFF0000
FF1F0000
E01F0000
001F0000
001F0000
001F0000
001F0000
001F0000
001F0000
001F0000
001F0000
001F0000
001F0000
001F0000
001F0000
001F0000
001F0000
001F0000
001F0000
001F0000
001F0000
001F0000
001F0000
001F0000
001F0000
001F0000
001F0000
001F0000
001F0000
001F0000
001F0000
001F0000
001F0000
001F0000
001F0000
7FFFFFC0
7FFFFFC0
7FFFFFC0
7FFFFFC0
7FFFFFC0
ENDCHAR
STARTCHAR two
ENCODING 50
SWIDTH 636 0
DWIDTH 38 0
BBX 28 45 5 0
BITMAP
00FFC000
0FFFF800
7FFFFE00
FFFFFF00
FFFFFF80
FF807FC0
FC001FC0
E00007E0
800003E0
000003F0
000001F0
000001F0
000001F0
000001F0
000001F0
000001F0
000003E0
000003E0
000007E0
00000FC0
00000FC0
00001F80
00003F00
00007E00
0000FC00
0001FC00
0003F800
0007F000
000FE000
001FC000
003F8000
007F0000
00FE0000
01FC0000
03F80000
07F00000
0FE00000
1FC00000
3F800000
FF000000
FFFFFFF0
FFFFFFF0
FFFFFFF0
FFFFFFF0
FFFFFFF0
ENDCHAR
STARTCHAR three
ENCODING 51
SWIDTH 636 0
DWIDTH 38 0
BBX 29 46 5 -1
BITMAP
01FFC000
1FFFF800
7FFFFC00
7FFFFF00
7FFFFF80
7E007F80
60001FC0
00000FC0
000007E0
000003E0
000003E0
000003E0
000003E0
000003E0
000003E0
000007C0
00000FC0
00001F80
00007F80
00FFFE00
00FFFC00
00FFF800
00FFFE00
00FFFF80
00007FC0
00000FE0
000007F0
000003F0
000001F0
000000F8
000000F8
000000F8
000000F8
000000F8
000000F8
000001F8
000001F0
000003F0
800007F0
E0000FE0
FE007FC0
FFFFFFC0
FFFFFF00
FFFFFE00
3FFFF800
03FFC000
ENDCHAR
STARTCHAR four
ENCODING 52
SWIDTH 636 0
DWIDTH 38 0
BBX 32 44 3 0
BITMAP
00003FC0
00007FC0
00007FC0
0000FFC0
0001F7C0
0001F7C0
0003E7C0
0003E7C0
0007C7C0
000F87C0
000F87C0
001F07C0
003E07C0
003E07C0
007C07C0
00F807C0
00F807C0
01F007C0
03F007C0
03E007C0
07C007C0
0FC007C0
0F8007C0
1F0007C0
3F0007C0
3E0007C0
7C0007C0
FC0007C0
F80007C0
FFFFFFFF
FFFFFFFF
FFFFFFFF
FFFFFFFF
FFFFFFFF
000007C0
000007C0
000007C0
000007C0
000007C0
000007C0
000007C0
000007C0
000007C0
000007C0
ENDCHAR
STARTCHAR five
ENCODING 53
SWIDTH 636 0
DWIDTH 38 0
BBX 28 45 5 -1
BITMAP
3FFFFF80
3FFFFF80
3FFFFF80
3FFFFF80
3FFFFF80
3E000000
3E000000
3E000000
3E000000
3E000000
3E000000
3E000000
3E000000
3E000000
3E000000
3EFF8000
3FFFF000
3FFFFC00
3FFFFE00
3FFFFF00
3E00FF80
20003FC0
00000FC0
000007E0
000007E0
000003E0
000003F0
000001F0
000001F0
000001F0
000001F0
000001F0
000001F0
000003F0
000003E0
000003E0
000007E0
80000FC0
E0003FC0
FE00FF80
FFFFFF00
FFFFFE00
FFFFFC00
3FFFF000
03FF0000
ENDCHAR
STARTCHAR six
ENCODING 54
SWIDTH 636 0
DWIDTH 38 0
BBX 30 46 4 -1
BITMAP
0003FC00
001FFFC0
007FFFE0
01FFFFE0
03FFFFE0
07FC03E0
07F00020
0FC00000
1F800000
1F000000
3F000000
3E000000
3E000000
7C000000
7C000000
7C000000
7C0FF000
F87FFE00
F8FFFF00
F9FFFFC0
FBFFFFE0
FFF81FE0
FFE007F0
FFC003F0
FF8001F8
FF0000F8
FF0000FC
FE00007C
FE00007C
FE00007C
7E00007C
7E00007C
7E00007C
7E00007C
7E00007C
3F0000FC
3F0000F8
1F8001F8
1FC003F0
0FE007F0
0FF81FE0
07FFFFC0
03FFFF80
01FFFF00
007FFC00
001FF000
ENDCHAR
STARTCHAR seven
ENCODING 55
SWIDTH 636 0
DWIDTH 38 0
BBX 28 44 5 0
BITMAP
FFFFFFF0
FFFFFFF0
FFFFFFF0
FFFFFFF0
FFFFFFE0
000007E0
000007C0
000007C0
00000FC0
00000F80
00001F80
00001F00
00001F00
00003F00
00003E00
00007E00
00007C00
00007C00
0000FC00
0000F800
0001F800
0001F000
0001F000
0003F000
0003E000
0007E000
0007C000
0007C000
000FC000
000F8000
001F8000
001F0000
001F0000
003F0000
003E0000
007E0000
007C0000
007C0000
00FC0000
00F80000
01F80000
01F00000
01F00000
03F00000
ENDCHAR
STARTCHAR eight
ENCODING 56
SWIDTH 636 0
DWIDTH 38 0
BBX 30 46 4 -1
BITMAP
003FF000
01FFFE00
03FFFF00
0FFFFFC0
1FFFFFE0
1FE01FE0
3F8007F0
3F0003F0
7E0001F8
7E0001F8
7C0000F8
7C0000F8
7C0000F8
7C0000F8
7C0000F8
7E0001F8
3E0001F0
3F0003F0
1F8007E0
0FE01FC0
07FFFF80
03FFFF00
00FFFC00
07FFFF80
0FFFFFC0
1FE01FE0
3F8007F0
7E0001F8
7C0000F8
FC0000FC
F800007C
F800007C
F800007C
F800007C
F800007C
F800007C
FC0000FC
7C0000F8
7E0001F8
7F8007F8
3FE01FF0
1FFFFFE0
0FFFFFC0
07FFFF80
01FFFE00
003FF000
ENDCHAR
STARTCHAR nine
ENCODING 57
SWIDTH 636 0
DWIDTH 38 0
BBX 30 46 4 -1
BITMAP
003FE000
00FFF800
03FFFE00
07FFFF00
0FFFFF80
1FE07FC0
3F801FC0
3F000FE0
7E0007E0
7C0003F0
FC0003F0
F80001F8
F80001F8
F80001F8
F80001F8
F80001F8
F80001FC
F80001FC
F80001FC
FC0003FC
7C0003FC
7E0007FC
7F000FFC
3F801FFC
1FE07FFC
1FFFFF7C
0FFFFE7C
03FFFC7C
01FFF87C
003FC0F8
000000F8
000000F8
000000F8
000001F0
000001F0
000003F0
000003E0
000007E0
00000FC0
10003F80
1F00FF80
1FFFFF00
1FFFFE00
1FFFF800
0FFFE000
00FF0000
ENDCHAR
STARTCHAR colon
ENCODING 58
SWIDTH 336 0
DWIDTH 20 0
BBX 6 31 7 0
BITMAP
FC
FC
FC
FC
FC
FC
FC
00
00
00
00
00
00
00
00
00
00
00
00
00
00
00
00
00
FC
FC
FC
FC
FC
FC
FC
ENDCHAR
STARTCHAR semicolon
ENCODING 59
SWIDTH 336 0
DWIDTH 20 0
BBX 7 38 5 -7
BITMAP
3E
3E
3E
3E
3E
3E
3E
00
00
00
00
00
00
00
00
00
00
00
00
00
00
00
00
00
3E
3E
3E
3E
3E
3E
3C
7C
7C
78
78
78
F8
F0
ENDCHAR
STARTCHAR less
ENCODING 60
SWIDTH 837 0
DWIDTH 50 0
BBX 38 32 6 3
BITMAP
0000000004
000000003C
00000001FC
0000000FFC
0000007FFC
000001FFF8
00000FFFE0
00007FFF00
0003FFF800
001FFFC000
007FFF0000
03FFF80000
1FFFC00000
FFFE000000
FFF0000000
FFC0000000
FFC0000000
FFF0000000
FFFE000000
1FFFC00000
03FFF80000
007FFF0000
001FFFC000
0003FFF800
00007FFF00
00000FFFE0
000001FFFC
0000007FFC
0000000FFC
00000001FC
000000003C
0000000004
ENDCHAR
STARTCHAR equal
ENCODING 61
SWIDTH 837 0
DWIDTH 50 0
BBX 38 17 6 10
BITMAP
FFFFFFFFFC
FFFFFFFFFC
FFFFFFFFFC
FFFFFFFFFC
FFFFFFFFFC
0000000000
0000000000
0000000000
0000000000
0000000000
0000000000
0000000000
FFFFFFFFFC
FFFFFFFFFC
FFFFFFFFFC
FFFFFFFFFC
FFFFFFFFFC
ENDCHAR
STARTCHAR greater
ENCODING 62
SWIDTH 837 0
DWIDTH 50 0
BBX 38 32 6 3
BITMAP
8000000000
F000000000
FE00000000
FFC0000000
FFF8000000
FFFE000000
1FFFC00000
03FFF80000
007FFF0000
000FFFE000
0003FFF800
00007FFF00
00000FFFE0
000001FFFC
0000003FFC
0000000FFC
00000007FC
0000003FFC
000001FFFC
00000FFFE0
00007FFF00
0001FFF800
000FFFE000
007FFF0000
03FFF80000
1FFFC00000
7FFE000000
FFF8000000
FFC0000000
FE00000000
F000000000
8000000000
ENDCHAR
STARTCHAR question
ENCODING 63
SWIDTH 530 0
DWIDTH 32 0
BBX 23 45 4 0
BITMAP
01FE00
1FFFC0
7FFFE0
FFFFF0
FFFFF8
FE03FC
F000FC
E0007E
80007E
00003E
00003E
00003E
00003E
00007E
00007C
0000FC
0001F8
0003F8
000FF0
001FE0
003FC0
007F80
007F00
00FE00
00FC00
01F800
01F000
01F000
01F000
01F000
01F000
01F000
01F000
01F000
000000
000000
000000
000000
01F800
01F800
01F800
01F800
01F800
01F800
01F800
ENDCHAR
STARTCHAR at
ENCODING 64
SWIDTH 1000 0
DWIDTH 60 0
BBX 52 53 4 -11
BITMAP
000003FF000000
00003FFFF00000
0001FFFFFE0000
0007FFFFFF0000
000FFFFFFFC000
003FFC00FFE000
007FE0001FF800
00FF000007FC00
01FE000001FE00
03F8000000FE00
07F00000003F00
07E00000001F80
0FC00000000F80
1F800000000FC0
1F8007F00007C0
3F001FFC7C07E0
3E003FFE7C03E0
3E007FFF7C03E0
7C00FFFFFC01F0
7C00FE07FC01F0
7C01F803FC01F0
FC01F801FC01F0
F803F000FC01F0
F803E0007C01F0
F803E0007C01F0
F803E0007C01F0
F803E0007C03F0
F803E0007C03E0
F803E0007C03E0
F803E0007C07E0
F803F000FC0FC0
FC01F000FC0FC0
7C01F801FC3F80
7C00FE07FCFF00
7C00FFFFFFFE00
7E007FFF7FFC00
3E003FFE7FF000
3F001FFC7FC000
1F0007F07C0000
1F800000000000
0FC00000000000
0FE00000000000
07F00000000000
03F80000010000
01FC0000038000
00FF00000FC000
007FC0003FC000
003FFC01FF8000
001FFFFFFF0000
0007FFFFFC0000
0001FFFFF00000
00007FFFC00000
000007FE000000
ENDCHAR
STARTCHAR A
ENCODING 65
SWIDTH 684 0
DWIDTH 41 0
BBX 40 44 0 0
BITMAP
0000FF0000
0000FF0000
0000FF0000
0001FF8000
0001FF8000
0001FF8000
0003FFC000
0003E7C000
0007E7E000
0007C3E000
0007C3E000
000FC3F000
000F81F000
000F81F000
001F81F800
001F00F800
003F00FC00
003E007C00
003E007C00
007E007E00
007C003E00
007C003E00
00FC001F00
00F8001F00
01F8001F80
01F0000F80
01F0000F80
03F0000FC0
03FFFFFFC0
07FFFFFFE0
07FFFFFFE0
07FFFFFFE0
0FFFFFFFF0
0F800001F0
0F800001F0
1F800001F8
1F000000F8
3F000000FC
3E0000007C
3E0000007C
7E0000007E
7C0000003E
7C0000003E
FC0000003F
ENDCHAR
STARTCHAR B
ENCODING 66
SWIDTH 686 0
DWIDTH 41 0
BBX 31 44 6 0
BITMAP
FFFFF000
FFFFFE00
FFFFFF80
FFFFFFC0
FFFFFFE0
F8001FF0
F80007F0
F80001F8
F80001F8
F80000F8
F80000F8
F80000F8
F80000F8
F80000F8
F80001F8
F80001F0
F80003F0
F8001FE0
FFFFFFC0
FFFFFF80
FFFFFF00
FFFFFFC0
FFFFFFE0
F8000FF0
F80001F8
F80000FC
F800007C
F800007C
F800003E
F800003E
F800003E
F800003E
F800003E
F800003E
F800007E
F800007C
F80000FC
F80001FC
F8000FF8
FFFFFFF0
FFFFFFE0
FFFFFFC0
FFFFFF00
FFFFF800
ENDCHAR
STARTCHAR C
ENCODING 67
SWIDTH 698 0
DWIDTH 42 0
BBX 35 46 3 -1
BITMAP
0000FFE000
000FFFFC00
003FFFFF00
007FFFFFC0
01FFFFFFE0
03FF003FE0
07F80007E0
07F00001E0
0FC0000060
1F80000020
1F00000000
3F00000000
3E00000000
7E00000000
7C00000000
7C00000000
7C00000000
F800000000
F800000000
F800000000
F800000000
F800000000
F800000000
F800000000
F800000000
F800000000
F800000000
F800000000
F800000000
7C00000000
7C00000000
7C00000000
7E00000000
3E00000000
3F00000000
1F00000000
1F80000020
0FC0000060
07F00001E0
07F80007E0
03FF003FE0
01FFFFFFE0
007FFFFFC0
003FFFFF00
000FFFFC00
0000FFC000
ENDCHAR
STARTCHAR D
ENCODING 68
SWIDTH 770 0
DWIDTH 46 0
BBX 37 44 6 0
BITMAP
FFFFE00000
FFFFFF0000
FFFFFFC000
FFFFFFF000
FFFFFFFC00
F8001FFE00
F80001FF00
F800007F80
F800001FC0
F800000FC0
F8000007E0
F8000007E0
F8000003F0
F8000003F0
F8000001F0
F8000001F0
F8000001F8
F8000000F8
F8000000F8
F8000000F8
F8000000F8
F8000000F8
F8000000F8
F8000000F8
F8000000F8
F8000000F8
F8000000F8
F8000001F8
F8000001F0
F8000001F0
F8000003F0
F8000003F0
F8000007E0
F8000007E0
F800000FC0
F800001FC0
F800007F80
F80001FF00
F8001FFE00
FFFFFFFC00
FFFFFFF000
FFFFFFC000
FFFFFF0000
FFFFE00000
ENDCHAR
STARTCHAR E
ENCODING 69
SWIDTH 631 0
DWIDTH 38 0
BBX 28 44 6 0
BITMAP
FFFFFFE0
FFFFFFE0
FFFFFFE0
FFFFFFE0
FFFFFFE0
F8000000
F8000000
F8000000
F8000000
F8000000
F8000000
F8000000
F8000000
F8000000
F8000000
F8000000
F8000000
F8000000
FFFFFFE0
FFFFFFE0
FFFFFFE0
FFFFFFE0
FFFFFFE0
F8000000
F8000000
F8000000
F8000000
F8000000
F8000000
F8000000
F8000000
F8000000
F8000000
F8000000
F8000000
F8000000
F8000000
F8000000
F8000000
FFFFFFF0
FFFFFFF0
FFFFFFF0
FFFFFFF0
FFFFFFF0
ENDCHAR
STARTCHAR F
ENCODING 70
SWIDTH 575 0
DWIDTH 35 0
BBX 25 44 6 0
BITMAP
FFFFFF80
FFFFFF80
FFFFFF80
FFFFFF80
FFFFFF80
F8000000
F8000000
F8000000
F8000000
F8000000
F8000000
F8000000
F8000000
F8000000
F8000000
F8000000
F8000000
F8000000
FFFFFE00
FFFFFE00
FFFFFE00
FFFFFE00
FFFFFE00
F8000000
F8000000
F8000000
F8000000
F8000000
F8000000
F8000000
F8000000
F8000000
F8000000
F8000000
F8000000
F8000000
F8000000
F8000000
F8000000
F8000000
F8000000
F8000000
F8000000
F8000000
ENDCHAR
STARTCHAR G
ENCODING 71
SWIDTH 774 0
DWIDTH 47 0
BBX 38 46 3 -1
BITMAP
0000FFF000
0007FFFF00
001FFFFFC0
007FFFFFF0
01FFFFFFF8
03FF801FF8
07F80003F8
07F0000078
0FC0000018
1F80000008
1F00000000
3F00000000
3E00000000
7E00000000
7C00000000
7C00000000
7C00000000
F800000000
F800000000
F800000000
F800000000
F800000000
F80001FFFC
F80001FFFC
F80001FFFC
F80001FFFC
F80001FFFC
F80000007C
F80000007C
7C0000007C
7C0000007C
7C0000007C
7E0000007C
3E0000007C
3F0000007C
1F0000007C
1F8000007C
0FC000007C
0FF000007C
07FC0001FC
03FF800FFC
01FFFFFFF8
007FFFFFF0
003FFFFFC0
0007FFFE00
0000FFE000
ENDCHAR
STARTCHAR H
ENCODING 72
SWIDTH 751 0
DWIDTH 45 0
BBX 33 44 6 0
BITMAP
F800000F80
F800000F80
F800000F80
F800000F80
F800000F80
F800000F80
F800000F80
F800000F80
F800000F80
F800000F80
F800000F80
F800000F80
F800000F80
F800000F80
F800000F80
F800000F80
F800000F80
F800000F80
FFFFFFFF80
FFFFFFFF80
FFFFFFFF80
FFFFFFFF80
FFFFFFFF80
F800000F80
F800000F80
F800000F80
F800000F80
F800000F80
F800000F80
F800000F80
F800000F80
F800000F80
F800000F80
F800000F80
F800000F80
F800000F80
F800000F80
F800000F80
F800000F80
F800000F80
F800000F80
F800000F80
F800000F80
F800000F80
ENDCHAR
STARTCHAR I
ENCODING 73
SWIDTH 294 0
DWIDTH 18 0
BBX 5 44 6 0
BITMAP
F8
F8
F8
F8
F8
F8
F8
F8
F8
F8
F8
F8
F8
F8
F8
F8
F8
F8
F8
F8
F8
F8
F8
F8
F8
F8
F8
F8
F8
F8
F8
F8
F8
F8
F8
F8
F8
F8
F8
F8
F8
F8
F8
F8
ENDCHAR
STARTCHAR J
ENCODING 74
SWIDTH 294 0
DWIDTH 18 0
BBX 14 56 -3 -12
BITMAP
007C
007C
007C
007C
007C
007C
007C
007C
007C
007C
007C
007C
007C
007C
007C
007C
007C
007C
007C
007C
007C
007C
007C
007C
007C
007C
007C
007C
007C
007C
007C
007C
007C
007C
007C
007C
007C
007C
007C
007C
007C
007C
007C
007C
007C
007C
00FC
00F8
00F8
01F8
07F0
FFF0
FFE0
FFC0
FF80
FC00
ENDCHAR
STARTCHAR K
ENCODING 75
SWIDTH 655 0
DWIDTH 39 0
BBX 35 44 6 0
BITMAP
F800007F00
F80000FE00
F80001FC00
F80003F800
F80007F000
F8000FE000
F8001FC000
F8007F8000
F800FF0000
F801FE0000
F803FC0000
F807F80000
F80FE00000
F81FC00000
F83F800000
F87F000000
F8FE000000
F9FC000000
FFF8000000
FFF0000000
FFE0000000
FFF0000000
FBF8000000
F9FC000000
F8FE000000
F87F000000
F83F800000
F81FC00000
F80FE00000
F807F00000
F803F80000
F801FC0000
F800FE0000
F8007F0000
F8003F8000
F8001FC000
F8000FE000
F80007F000
F80003F800
F80001FC00
F80000FE00
F800007F00
F800003F80
F800001FE0
ENDCHAR
STARTCHAR L
ENCODING 76
SWIDTH 557 0
DWIDTH 33 0
BBX 27 44 6 0
BITMAP
F8000000
F8000000
F8000000
F8000000
F8000000
F8000000
F8000000
F8000000
F8000000
F8000000
F8000000
F8000000
F8000000
F8000000
F8000000
F8000000
F8000000
F8000000
F8000000
F8000000
F8000000
F8000000
F8000000
F8000000
F8000000
F8000000
F8000000
F8000000
F8000000
F8000000
F8000000
F8000000
F8000000
F8000000
F8000000
F8000000
F8000000
F8000000
F8000000
FFFFFFE0
FFFFFFE0
FFFFFFE0
FFFFFFE0
FFFFFFE0
ENDCHAR
STARTCHAR M
ENCODING 77
SWIDTH 862 0
DWIDTH 52 0
BBX 40 44 6 0
BITMAP
FF000000FF
FF800001FF
FF800001FF
FFC00003FF
FFC00003FF
FFC00003FF
FFE00007FF
FBE00007DF
FBF0000FDF
F9F0000F9F
F9F0000F9F
F9F8001F9F
F8F8001F1F
F8F8003F1F
F87C003E1F
F87C003E1F
F87E007E1F
F83E007C1F
F83E007C1F
F83F00FC1F
F81F00F81F
F81F81F81F
F80F81F01F
F80F81F01F
F80FC3F01F
F807C3E01F
F807E7E01F
F803E7C01F
F803E7C01F
F803FFC01F
F801FF801F
F801FF801F
F800FF001F
F800FF001F
F800FF001F
F8007E001F
F80000001F
F80000001F
F80000001F
F80000001F
F80000001F
F80000001F
F80000001F
F80000001F
ENDCHAR
STARTCHAR N
ENCODING 78
SWIDTH 748 0
DWIDTH 45 0
BBX 33 44 6 0
BITMAP
FF00000F80
FF00000F80
FF80000F80
FF80000F80
FFC0000F80
FFC0000F80
FFE0000F80
FBE0000F80
FBF0000F80
F9F8000F80
F9F8000F80
F8FC000F80
F8FC000F80
F87E000F80
F83E000F80
F83F000F80
F81F000F80
F81F800F80
F80F800F80
F80FC00F80
F807E00F80
F807E00F80
F803F00F80
F803F00F80
F801F80F80
F800F80F80
F800FC0F80
F8007C0F80
F8007E0F80
F8003E0F80
F8003F0F80
F8001F0F80
F8001F8F80
F8000FCF80
F8000FCF80
F80007EF80
F80003EF80
F80003FF80
F80001FF80
F80001FF80
F80000FF80
F80000FF80
F800007F80
F800007F80
ENDCHAR
STARTCHAR O
ENCODING 79
SWIDTH 787 0
DWIDTH 47 0
BBX 40 46 3 -1
BITMAP
0001FF8000
000FFFF000
003FFFFC00
00FFFFFF00
01FFFFFF80
03FF00FFC0
07F8001FE0
0FF0000FF0
0FC00003F0
1F800001F8
1F800001F8
3F000000FC
3E0000007C
7E0000007E
7C0000003E
7C0000003E
7C0000003E
FC0000003F
F80000001F
F80000001F
F80000001F
F80000001F
F80000001F
F80000001F
F80000001F
F80000001F
F80000001F
F80000001F
FC0000003F
7C0000003E
7C0000003E
7C0000003E
7E0000007E
3E0000007C
3F000000FC
1F800001F8
1F800001F8
0FC00003F0
0FF0000FF0
07F8001FE0
03FF00FFC0
01FFFFFF80
00FFFFFF00
003FFFFC00
000FFFF000
0001FF8000
ENDCHAR
STARTCHAR P
ENCODING 80
SWIDTH 603 0
DWIDTH 36 0
BBX 28 44 6 0
BITMAP
FFFFC000
FFFFF800
FFFFFE00
FFFFFF00
FFFFFF80
F8007FC0
F8000FE0
F80007E0
F80003E0
F80003F0
F80001F0
F80001F0
F80001F0
F80001F0
F80001F0
F80001F0
F80003F0
F80003E0
F80007E0
F8000FE0
F8007FC0
FFFFFF80
FFFFFF80
FFFFFE00
FFFFF800
FFFFE000
F8000000
F8000000
F8000000
F8000000
F8000000
F8000000
F8000000
F8000000
F8000000
F8000000
F8000000
F8000000
F8000000
F8000000
F8000000
F8000000
F8000000
F8000000
ENDCHAR
STARTCHAR Q
ENCODING 81
SWIDTH 787 0
DWIDTH 47 0
BBX 40 53 3 -8
BITMAP
0001FF8000
000FFFF000
003FFFFC00
00FFFFFF00
01FFFFFF80
03FF00FFC0
07F8001FE0
0FF0000FF0
0FC00003F0
1F800001F8
1F800001F8
3F000000FC
3E0000007C
7E0000007E
7C0000003E
7C0000003E
7C0000003E
FC0000003F
F80000001F
F80000001F
F80000001F
F80000001F
F80000001F
F80000001F
F80000001F
F80000001F
F80000001F
F80000001F
FC0000003F
7C0000003E
7C0000003E
7C0000003E
7E0000007E
3E0000007C
3F000000FC
1F800001F8
1F800001F8
0FC00003F0
0FF0000FF0
07F8001FE0
03FF00FFC0
01FFFFFF80
007FFFFF00
003FFFFC00
000FFFF800
0001FFFC00
000000FE00
0000007F00
0000003F80
0000001FC0
0000000FC0
00000007E0
00000003F0
ENDCHAR
STARTCHAR R
ENCODING 82
SWIDTH 694 0
DWIDTH 42 0
BBX 34 44 6 0
BITMAP
FFFFE00000
FFFFFC0000
FFFFFF0000
FFFFFF8000
FFFFFFC000
F8003FC000
F8000FE000
F80007E000
F80003F000
F80003F000
F80001F000
F80001F000
F80001F000
F80001F000
F80001F000
F80003F000
F80003F000
F80007E000
F8000FE000
F8003FC000
FFFFFF8000
FFFFFF0000
FFFFFE0000
FFFFFE0000
FFFFFF0000
F800FF8000
F8003F8000
F8001FC000
F8000FC000
F80007E000
F80003E000
F80003F000
F80001F000
F80001F800
F80000F800
F80000FC00
F800007C00
F800007E00
F800003E00
F800003F00
F800001F00
F800001F80
F800000F80
F800000FC0
ENDCHAR
STARTCHAR S
ENCODING 83
SWIDTH 634 0
DWIDTH 38 0
BBX 31 46 4 -1
BITMAP
003FFC00
01FFFFC0
07FFFFF0
0FFFFFF0
1FFFFFF0
3FE00FF0
7F0000F0
7E000010
7C000000
FC000000
F8000000
F8000000
F8000000
F8000000
F8000000
FC000000
FE000000
7F800000
7FF00000
3FFF8000
1FFFFC00
0FFFFF00
03FFFFC0
00FFFFE0
001FFFF0
00007FF8
000007FC
000001FC
000000FC
0000007E
0000007E
0000003E
0000003E
0000003E
0000003E
0000003E
0000007E
8000007C
E00000FC
FC0003F8
FFC00FF8
FFFFFFF0
FFFFFFE0
7FFFFF80
0FFFFE00
00FFF000
ENDCHAR
STARTCHAR T
ENCODING 84
SWIDTH 610 0
DWIDTH 37 0
BBX 37 44 -1 0
BITMAP
FFFFFFFFF8
FFFFFFFFF8
FFFFFFFFF8
FFFFFFFFF8
FFFFFFFFF8
0000F80000
0000F80000
0000F80000
0000F80000
0000F80000
0000F80000
0000F80000
0000F80000
0000F80000
0000F80000
0000F80000
0000F80000
0000F80000
0000F80000
0000F80000
0000F80000
0000F80000
0000F80000
0000F80000
0000F80000
0000F80000
0000F80000
0000F80000
0000F80000
0000F80000
0000F80000
0000F80000
0000F80000
0000F80000
0000F80000
0000F80000
0000F80000
0000F80000
0000F80000
0000F80000
0000F80000
0000F80000
0000F80000
0000F80000
ENDCHAR
STARTCHAR U
ENCODING 85
SWIDTH 731 0
DWIDTH 44 0
BBX 33 45 6 -1
BITMAP
F800000F80
F800000F80
F800000F80
F800000F80
F800000F80
F800000F80
F800000F80
F800000F80
F800000F80
F800000F80
F800000F80
F800000F80
F800000F80
F800000F80
F800000F80
F800000F80
F800000F80
F800000F80
F800000F80
F800000F80
F800000F80
F800000F80
F800000F80
F800000F80
F800000F80
F800000F80
F800000F80
F800000F80
F800000F80
F800000F80
F800000F80
F800000F80
FC00001F80
7C00001F00
7C00001F00
7E00003F00
3E00003E00
3F00007E00
1FC001FC00
1FF007FC00
0FFFFFF800
07FFFFF000
03FFFFC000
00FFFF8000
001FF80000
ENDCHAR
STARTCHAR V
ENCODING 86
SWIDTH 684 0
DWIDTH 41 0
BBX 40 44 0 0
BITMAP
FC0000003F
7C0000003E
7C0000003E
7E0000007E
3E0000007C
3E0000007C
3F000000FC
1F000000F8
1F800001F8
0F800001F0
0F800001F0
0FC00003F0
07C00003E0
07C00003E0
07E00007E0
03E00007C0
03F0000FC0
01F0000F80
01F0000F80
01F8001F80
00F8001F00
00F8003F00
007C003F00
007C003E00
007E007E00
003E007C00
003E007C00
003F00FC00
001F00F800
001F81F800
000F81F000
000F81F000
000FC3F000
0007C3E000
0007C3E000
0007E7E000
0003E7C000
0003FFC000
0001FF8000
0001FF8000
0001FF8000
0000FF0000
0000FF0000
0000FF0000
ENDCHAR
STARTCHAR W
ENCODING 87
SWIDTH 988 0
DWIDTH 59 0
BBX 55 44 2 0
BITMAP
F80000FE00003E
FC0001FF00007E
7C0001FF00007C
7C0001FF00007C
7C0001FF00007C
7E0003FF8000FC
3E0003EF8000F8
3E0003EF8000F8
3E0003EF8000F8
3F0007EFC001F8
1F0007C7C001F0
1F0007C7C001F0
1F0007C7C001F0
1F8007C7E003F0
0F800F83E003E0
0F800F83E003E0
0F800F83E003E0
0F800F83E003E0
07C01F01F007C0
07C01F01F007C0
07C01F01F007C0
07C01F01F007C0
03E03E00F80F80
03E03E00F80F80
03E03E00F80F80
03E03E00F80F80
01F07E00FC1F00
01F07C007C1F00
01F07C007C1F00
01F07C007C1F00
00F8FC007E3E00
00F8F8003E3E00
00F8F8003E3E00
00F8F8003E3E00
007DF8003F7C00
007DF0001F7C00
007DF0001F7C00
007DF0001F7C00
003FF0001FF800
003FE0000FF800
003FE0000FF800
003FE0000FF800
001FE0000FF000
001FC00007F000
ENDCHAR
STARTCHAR X
ENCODING 88
SWIDTH 685 0
DWIDTH 41 0
BBX 37 44 2 0
BITMAP
3F000003F0
1F800007E0
0FC0000FC0
0FC0000FC0
07E0001F80
03F0003F00
03F0003F00
01F8007E00
00FC00FC00
00FC00FC00
007E01F800
003E03F000
003F03F000
001F87E000
001F8FE000
000FCFC000
0007FF8000
0007FF8000
0003FF0000
0001FE0000
0001FE0000
0001FC0000
0003FE0000
0007FF0000
0007FF0000
000FDF8000
001F8FC000
001F8FC000
003F07E000
003F03F000
007E03F000
00FC01F800
00FC00FC00
01F800FC00
03F0007E00
03F0003E00
07E0003F00
0FC0001F80
0FC0001F80
1F80000FC0
3F000007E0
3F000007E0
7E000003F0
FC000001F8
ENDCHAR
STARTCHAR Y
ENCODING 89
SWIDTH 610 0
DWIDTH 37 0
BBX 37 44 -1 0
BITMAP
FC000001F8
7E000003F0
3F000007E0
3F80000FE0
1F80000FC0
0FC0001F80
07E0003F80
07E0003F00
03F0007E00
01F800FC00
01F800FC00
00FC01F800
007E03F000
007E03F000
003F07E000
001F8FC000
001FDFC000
000FDF8000
0007FF0000
0003FE0000
0003FE0000
0001FC0000
0000F80000
0000F80000
0000F80000
0000F80000
0000F80000
0000F80000
0000F80000
0000F80000
0000F80000
0000F80000
0000F80000
0000F80000
0000F80000
0000F80000
0000F80000
0000F80000
0000F80000
0000F80000
0000F80000
0000F80000
0000F80000
0000F80000
ENDCHAR
STARTCHAR Z
ENCODING 90
SWIDTH 685 0
DWIDTH 41 0
BBX 36 44 3 0
BITMAP
7FFFFFFFE0
7FFFFFFFE0
7FFFFFFFE0
7FFFFFFFE0
7FFFFFFFE0
0000000FC0
0000001F80
0000003F80
0000007F00
0000007E00
000000FC00
000001F800
000003F800
000007F000
00000FE000
00000FC000
00001F8000
00003F0000
00007F0000
0000FE0000
0000FC0000
0001F80000
0003F00000
0007F00000
000FE00000
001FC00000
001F800000
003F000000
007E000000
00FE000000
01FC000000
01F8000000
03F0000000
07E0000000
0FE0000000
1FC0000000
3F80000000
3F00000000
7E00000000
FFFFFFFFF0
FFFFFFFFF0
FFFFFFFFF0
FFFFFFFFF0
FFFFFFFFF0
ENDCHAR
STARTCHAR bracketleft
ENCODING 91
SWIDTH 390 0
DWIDTH 23 0
BBX 12 54 5 -8
BITMAP
FFF0
FFF0
FFF0
FFF0
FFF0
F800
F800
F800
F800
F800
F800
F800
F800
F800
F800
F800
F800
F800
F800
F800
F800
F800
F800
F800
F800
F800
F800
F800
F800
F800
F800
F800
F800
F800
F800
F800
F800
F800
F800
F800
F800
F800
F800
F800
F800
F800
F800
F800
F800
FFF0
FFF0
FFF0
FFF0
FFF0
ENDCHAR
STARTCHAR backslash
ENCODING 92
SWIDTH 336 0
DWIDTH 20 0
BBX 20 49 0 -5
BITMAP
F80000
FC0000
7C0000
7C0000
7E0000
3E0000
3E0000
3F0000
1F0000
1F0000
1F0000
1F8000
0F8000
0F8000
0FC000
07C000
07C000
07E000
03E000
03E000
03E000
03F000
01F000
01F000
01F800
00F800
00F800
00FC00
007C00
007C00
007C00
007E00
003E00
003E00
003F00
001F00
001F00
001F80
000F80
000F80
000F80
0007C0
0007C0
0007C0
0007E0
0003E0
0003E0
0003F0
0001F0
ENDCHAR
STARTCHAR bracketright
ENCODING 93
SWIDTH 390 0
DWIDTH 23 0
BBX 12 54 6 -8
BITMAP
FFF0
FFF0
FFF0
FFF0
FFF0
01F0
01F0
01F0
01F0
01F0
01F0
01F0
01F0
01F0
01F0
01F0
01F0
01F0
01F0
01F0
01F0
01F0
01F0
01F0
01F0
01F0
01F0
01F0
01F0
01F0
01F0
01F0
01F0
01F0
01F0
01F0
01F0
01F0
01F0
01F0
01F0
01F0
01F0
01F0
01F0
01F0
01F0
01F0
01F0
FFF0
FFF0
FFF0
FFF0
FFF0
ENDCHAR
STARTCHAR asciicircum
ENCODING 94
SWIDTH 837 0
DWIDTH 50 0
BBX 38 16 6 28
BITMAP
0000FC0000
0001FE0000
0003FF0000
0007FF8000
000FFFC000
001FCFE000
003F87F000
007F03F800
00FE01FC00
01F8007E00
03F0003F00
07E0001F80
0FC0000FC0
3F800007E0
7F000003F8
FE000001FC
ENDCHAR
STARTCHAR underscore
ENCODING 95
SWIDTH 500 0
DWIDTH 30 0
BBX 32 5 -1 -14
BITMAP
FFFFFFFF
FFFFFFFF
FFFFFFFF
FFFFFFFF
FFFFFFFF
ENDCHAR
STARTCHAR grave
ENCODING 96
SWIDTH 500 0
DWIDTH 30 0
BBX 14 11 5 37
BITMAP
FC00
7E00
3F00
1F00
0F80
07C0
03E0
03E0
01F0
00F8
007C
ENDCHAR
STARTCHAR a
ENCODING 97
SWIDTH 612 0
DWIDTH 37 0
BBX 28 35 3 -1
BITMAP
007FC000
07FFF800
1FFFFE00
3FFFFF00
3FFFFF80
3F007FC0
38000FC0
200007E0
000003E0
000003E0
000001F0
000001F0
000001F0
007FFFF0
03FFFFF0
0FFFFFF0
1FFFFFF0
3FFFFFF0
7FE001F0
7F0001F0
7C0001F0
FC0001F0
F80001F0
F80003F0
F80003F0
F80007F0
F80007F0
FC000FF0
7E003FF0
7F80FFF0
3FFFFDF0
3FFFF9F0
1FFFF1F0
07FFC1F0
01FF0000
ENDCHAR
STARTCHAR b
ENCODING 98
SWIDTH 634 0
DWIDTH 38 0
BBX 29 47 5 -1
BITMAP
F8000000
F8000000
F8000000
F8000000
F8000000
F8000000
F8000000
F8000000
F8000000
F8000000
F8000000
F8000000
F80FE000
F87FFC00
F8FFFE00
F9FFFF00
FBFFFF80
FFE03FC0
FF800FC0
FF0007E0
FE0003E0
FE0003F0
FC0001F0
FC0001F0
FC0001F8
F80000F8
F80000F8
F80000F8
F80000F8
F80000F8
F80000F8
F80000F8
F80000F8
F80000F8
FC0001F8
FC0001F0
FC0001F0
FE0003F0
FE0003E0
FF0007E0
FF800FC0
FFE03FC0
FBFFFF80
F9FFFF00
F8FFFE00
F87FF800
000FE000
ENDCHAR
STARTCHAR c
ENCODING 99
SWIDTH 549 0
DWIDTH 33 0
BBX 26 35 3 -1
BITMAP
000FF800
007FFE00
01FFFF80
03FFFFC0
07FFFFC0
0FF80FC0
1FC001C0
3F800040
3F000000
7E000000
7C000000
7C000000
FC000000
F8000000
F8000000
F8000000
F8000000
F8000000
F8000000
F8000000
F8000000
F8000000
FC000000
7C000000
7C000000
7E000000
3F000000
3F800040
1FC001C0
0FF80FC0
07FFFFC0
03FFFFC0
01FFFF80
007FFE00
000FF000
ENDCHAR
STARTCHAR d
ENCODING 100
SWIDTH 634 0
DWIDTH 38 0
BBX 29 47 3 -1
BITMAP
000000F8
000000F8
000000F8
000000F8
000000F8
000000F8
000000F8
000000F8
000000F8
000000F8
000000F8
000000F8
003F80F8
01FFF0F8
03FFF8F8
07FFFCF8
0FFFFEF8
1FE03FF8
1F800FF8
3F0007F8
3E0003F8
7E0003F8
7C0001F8
7C0001F8
FC0001F8
F80000F8
F80000F8
F80000F8
F80000F8
F80000F8
F80000F8
F80000F8
F80000F8
F80000F8
FC0001F8
7C0001F8
7C0001F8
7E0003F8
3E0003F8
3F0007F8
1F800FF8
1FE03FF8
0FFFFEF8
07FFFCF8
03FFF8F8
01FFF0F8
003F8000
ENDCHAR
STARTCHAR e
ENCODING 101
SWIDTH 615 0
DWIDTH 37 0
BBX 30 35 3 -1
BITMAP
000FF000
007FFE00
01FFFF00
03FFFFC0
07FFFFE0
0FF01FE0
1F8003F0
3F0001F8
3E0000F8
7C0000F8
7C00007C
7800007C
F800007C
FFFFFFFC
FFFFFFFC
FFFFFFFC
FFFFFFFC
FFFFFFFC
F8000000
F8000000
F8000000
FC000000
FC000000
7C000000
7E000000
7E000000
3F000000
3F800008
1FC00038
0FF803F8
07FFFFF8
03FFFFF8
01FFFFF0
007FFF80
000FFC00
ENDCHAR
STARTCHAR f
ENCODING 102
SWIDTH 352 0
DWIDTH 21 0
BBX 20 46 2 0
BITMAP
001FF0
007FF0
00FFF0
01FFF0
03FFF0
03F000
07E000
07C000
07C000
07C000
07C000
07C000
07C000
FFFFE0
FFFFE0
FFFFE0
FFFFE0
FFFFE0
07C000
07C000
07C000
07C000
07C000
07C000
07C000
07C000
07C000
07C000
07C000
07C000
07C000
07C000
07C000
07C000
07C000
07C000
07C000
07C000
07C000
07C000
07C000
07C000
07C000
07C000
07C000
07C000
ENDCHAR
STARTCHAR g
ENCODING 103
SWIDTH 634 0
DWIDTH 38 0
BBX 29 46 3 -12
BITMAP
003F8000
01FFF0F8
03FFF8F8
07FFFCF8
0FFFFEF8
1FE03FF8
3F800FF8
3F0007F8
7E0003F8
7E0003F8
7C0001F8
7C0001F8
F80000F8
F80000F8
F80000F8
F80000F8
F80000F8
F80000F8
F80000F8
F80000F8
F80000F8
F80000F8
7C0001F8
7C0001F8
7E0003F8
7E0003F8
3F0007F8
3F800FF8
1FE03FF8
0FFFFEF8
07FFFCF8
03FFF8F8
01FFF0F8
003F80F8
000001F8
000001F0
000001F0
000003F0
080007E0
0E000FE0
0FC07FC0
0FFFFFC0
0FFFFF80
07FFFF00
01FFFC00
003FE000
ENDCHAR
STARTCHAR h
ENCODING 104
SWIDTH 633 0
DWIDTH 38 0
BBX 27 46 5 0
BITMAP
F8000000
F8000000
F8000000
F8000000
F8000000
F8000000
F8000000
F8000000
F8000000
F8000000
F8000000
F8000000
F80FE000
F83FFC00
F8FFFE00
F9FFFF00
FBFFFF80
FFE03F80
FF801FC0
FF000FC0
FE0007C0
FC0007E0
FC0003E0
F80003E0
F80003E0
F80003E0
F80003E0
F80003E0
F80003E0
F80003E0
F80003E0
F80003E0
F80003E0
F80003E0
F80003E0
F80003E0
F80003E0
F80003E0
F80003E0
F80003E0
F80003E0
F80003E0
F80003E0
F80003E0
F80003E0
F80003E0
ENDCHAR
STARTCHAR i
ENCODING 105
SWIDTH 277 0
DWIDTH 17 0
BBX 5 46 5 0
BITMAP
F8
F8
F8
F8
F8
F8
F8
00
00
00
00
00
00
F8
F8
F8
F8
F8
F8
F8
F8
F8
F8
F8
F8
F8
F8
F8
F8
F8
F8
F8
F8
F8
F8
F8
F8
F8
F8
F8
F8
F8
F8
F8
F8
F8
ENDCHAR
STARTCHAR j
ENCODING 106
SWIDTH 277 0
DWIDTH 17 0
BBX 12 58 -2 -12
BITMAP
01F0
01F0
01F0
01F0
01F0
01F0
01F0
0000
0000
0000
0000
0000
0000
01F0
01F0
01F0
01F0
01F0
01F0
01F0
01F0
01F0
01F0
01F0
01F0
01F0
01F0
01F0
01F0
01F0
01F0
01F0
01F0
01F0
01F0
01F0
01F0
01F0
01F0
01F0
01F0
01F0
01F0
01F0
01F0
01F0
01F0
01F0
01F0
01F0
03F0
03E0
07E0
FFE0
FFC0
FF80
FF00
FC00
ENDCHAR
STARTCHAR k
ENCODING 107
SWIDTH 579 0
DWIDTH 35 0
BBX 28 46 5 0
BITMAP
F8000000
F8000000
F8000000
F8000000
F8000000
F8000000
F8000000
F8000000
F8000000
F8000000
F8000000
F8000000
F8000000
F8000FE0
F8001FC0
F8003F80
F800FF00
F801FE00
F803FC00
F807F800
F80FF000
F81FC000
F83F8000
F87F0000
F9FE0000
FBFC0000
FFF80000
FFF00000
FFE00000
FFF00000
FFF80000
F9FC0000
F8FE0000
F87F0000
F83F8000
F81FC000
F80FE000
F807F000
F803F800
F801FC00
F800FE00
F8007F00
F8003F80
F8001FC0
F8000FE0
F80007F0
ENDCHAR
STARTCHAR l
ENCODING 108
SWIDTH 277 0
DWIDTH 17 0
BBX 5 46 5 0
BITMAP
F8
F8
F8
F8
F8
F8
F8
F8
F8
F8
F8
F8
F8
F8
F8
F8
F8
F8
F8
F8
F8
F8
F8
F8
F8
F8
F8
F8
F8
F8
F8
F8
F8
F8
F8
F8
F8
F8
F8
F8
F8
F8
F8
F8
F8
F8
ENDCHAR
STARTCHAR m
ENCODING 109
SWIDTH 974 0
DWIDTH 58 0
BBX 49 34 5 0
BITMAP
000FF0003FC000
F83FFC00FFF000
F8FFFE03FFF800
F9FFFF07FFFC00
FBFFFF8FFFFE00
FFE03F9F80FE00
FF801FDE007F00
FF000FFC003F00
FE0007F8001F00
FC0007F0001F80
FC0003F0000F80
F80003E0000F80
F80003E0000F80
F80003E0000F80
F80003E0000F80
F80003E0000F80
F80003E0000F80
F80003E0000F80
F80003E0000F80
F80003E0000F80
F80003E0000F80
F80003E0000F80
F80003E0000F80
F80003E0000F80
F80003E0000F80
F80003E0000F80
F80003E0000F80
F80003E0000F80
F80003E0000F80
F80003E0000F80
F80003E0000F80
F80003E0000F80
F80003E0000F80
F80003E0000F80
ENDCHAR
STARTCHAR n
ENCODING 110
SWIDTH 633 0
DWIDTH 38 0
BBX 27 34 5 0
BITMAP
000FE000
F83FFC00
F8FFFE00
F9FFFF00
FBFFFF80
FFE03F80
FF801FC0
FF000FC0
FE0007C0
FC0007E0
FC0003E0
F80003E0
F80003E0
F80003E0
F80003E0
F80003E0
F80003E0
F80003E0
F80003E0
F80003E0
F80003E0
F80003E0
F80003E0
F80003E0
F80003E0
F80003E0
F80003E0
F80003E0
F80003E0
F80003E0
F80003E0
F80003E0
F80003E0
F80003E0
ENDCHAR
STARTCHAR o
ENCODING 111
SWIDTH 611 0
DWIDTH 37 0
BBX 30 35 3 -1
BITMAP
001FE000
00FFFC00
03FFFF00
07FFFF80
0FFFFFC0
1FF03FE0
1FC00FE0
3F0007F0
3F0003F0
7E0001F8
7C0000F8
7C0000F8
FC0000FC
F800007C
F800007C
F800007C
F800007C
F800007C
F800007C
F800007C
F800007C
F800007C
FC0000FC
7C0000F8
7C0000F8
7E0001F8
3F0003F0
3F0003F0
1FC00FE0
1FF03FE0
0FFFFFC0
07FFFF80
03FFFF00
00FFFC00
001FE000
ENDCHAR
STARTCHAR p
ENCODING 112
SWIDTH 634 0
DWIDTH 38 0
BBX 29 46 5 -12
BITMAP
000FE000
F87FFC00
F8FFFE00
F9FFFF00
FBFFFF80
FFE03FC0
FF800FC0
FF0007E0
FE0003E0
FE0003F0
FC0001F0
FC0001F0
FC0001F8
F80000F8
F80000F8
F80000F8
F80000F8
F80000F8
F80000F8
F80000F8
F80000F8
F80000F8
FC0001F8
FC0001F0
FC0001F0
FE0003F0
FE0003E0
FF0007E0
FF800FC0
FFE03FC0
FBFFFF80
F9FFFF00
F8FFFE00
F87FF800
F80FE000
F8000000
F8000000
F8000000
F8000000
F8000000
F8000000
F8000000
F8000000
F8000000
F8000000
F8000000
ENDCHAR
STARTCHAR q
ENCODING 113
SWIDTH 634 0
DWIDTH 38 0
BBX 29 46 3 -12
BITMAP
003F8000
01FFF0F8
03FFF8F8
07FFFCF8
0FFFFEF8
1FE03FF8
1F800FF8
3F0007F8
3E0003F8
7E0003F8
7C0001F8
7C0001F8
FC0001F8
F80000F8
F80000F8
F80000F8
F80000F8
F80000F8
F80000F8
F80000F8
F80000F8
F80000F8
FC0001F8
7C0001F8
7C0001F8
7E0003F8
3E0003F8
3F0007F8
1F800FF8
1FE03FF8
0FFFFEF8
07FFFCF8
03FFF8F8
01FFF0F8
003F80F8
000000F8
000000F8
000000F8
000000F8
000000F8
000000F8
000000F8
000000F8
000000F8
000000F8
000000F8
ENDCHAR
STARTCHAR r
ENCODING 114
SWIDTH 411 0
DWIDTH 25 0
BBX 19 34 5 0
BITMAP
000FE0
F87FE0
F8FFE0
F9FFE0
FBFFE0
FFE020
FF8000
FF0000
FE0000
FC0000
FC0000
FC0000
F80000
F80000
F80000
F80000
F80000
F80000
F80000
F80000
F80000
F80000
F80000
F80000
F80000
F80000
F80000
F80000
F80000
F80000
F80000
F80000
F80000
F80000
ENDCHAR
STARTCHAR s
ENCODING 115
SWIDTH 520 0
DWIDTH 31 0
BBX 25 35 3 -1
BITMAP
00FFC000
07FFFC00
1FFFFE00
3FFFFE00
7FFFFE00
7F803E00
FE000200
FC000000
F8000000
F8000000
F8000000
FC000000
FC000000
7F800000
7FF00000
3FFF0000
1FFFE000
07FFF800
01FFFE00
001FFE00
0001FF00
00003F00
00001F80
00000F80
00000F80
00000F80
00000F80
80001F80
F0003F00
FE00FF00
FFFFFE00
FFFFFC00
FFFFF800
3FFFE000
03FF8000
ENDCHAR
STARTCHAR t
ENCODING 116
SWIDTH 392 0
DWIDTH 24 0
BBX 20 42 1 0
BITMAP
0F8000
0F8000
0F8000
0F8000
0F8000
0F8000
0F8000
0F8000
0F8000
FFFFF0
FFFFF0
FFFFF0
FFFFF0
FFFFF0
0F8000
0F8000
0F8000
0F8000
0F8000
0F8000
0F8000
0F8000
0F8000
0F8000
0F8000
0F8000
0F8000
0F8000
0F8000
0F8000
0F8000
0F8000
0F8000
0F8000
0F8000
0FC000
07E000
07FFF0
07FFF0
03FFF0
01FFF0
003FF0
ENDCHAR
STARTCHAR u
ENCODING 117
SWIDTH 633 0
DWIDTH 38 0
BBX 27 34 5 -1
BITMAP
F80003E0
F80003E0
F80003E0
F80003E0
F80003E0
F80003E0
F80003E0
F80003E0
F80003E0
F80003E0
F80003E0
F80003E0
F80003E0
F80003E0
F80003E0
F80003E0
F80003E0
F80003E0
F80003E0
F80003E0
F80003E0
F80003E0
F80007E0
F80007E0
FC0007E0
7C000FE0
7E001FE0
7F003FE0
3F80FFE0
3FFFFBE0
1FFFF3E0
0FFFE3E0
07FFC3E0
00FE0000
ENDCHAR
STARTCHAR v
ENCODING 118
SWIDTH 591 0
DWIDTH 36 0
BBX 32 33 2 0
BITMAP
FC00003F
7C00003E
7C00003E
7E00007E
3E00007C
3E00007C
3F0000FC
1F0000F8
1F8001F8
0F8001F0
0F8001F0
0FC003F0
07C003E0
07C003E0
07E007E0
03E007C0
03F00FC0
01F00F80
01F00F80
01F81F80
00F81F00
00F81F00
00FC3F00
007C3E00
007C7E00
003E7C00
003E7C00
003FFC00
001FF800
001FF800
001FF800
000FF000
000FF000
ENDCHAR
STARTCHAR w
ENCODING 119
SWIDTH 817 0
DWIDTH 49 0
BBX 44 33 3 0
BITMAP
F8003FC001F0
FC003FC003F0
7C003FC003E0
7C007FE003E0
7C007FE003E0
7E007FE007E0
3E007FE007C0
3E00FFF007C0
3E00F9F007C0
3F00F9F00FC0
1F00F9F00F80
1F01F9F80F80
1F01F0F80F80
0F81F0F81F80
0F81F0F81F00
0F83F0FC1F00
0F83E07C1F00
07C3E07C3E00
07C3E07C3E00
07C7C03E3E00
07C7C03E7E00
03E7C03E7C00
03EFC03E7C00
03EF801F7C00
03FF801FFC00
01FF801FF800
01FF801FF800
01FF000FF800
01FF000FF800
00FF000FF000
00FF000FF000
00FE0007F000
00FE0007F000
ENDCHAR
STARTCHAR x
ENCODING 120
SWIDTH 591 0
DWIDTH 36 0
BBX 32 33 2 0
BITMAP
7F0000FE
3F0000FC
1F8001F8
0FC003F0
0FE007F0
07E007E0
03F00FC0
01F81F80
01F81F80
00FC3F00
007E7E00
007FFE00
003FFC00
001FF800
000FF000
000FF000
000FF000
001FF000
001FF800
003FFC00
007EFE00
00FE7E00
00FC3F00
01F81F80
03F01FC0
07F00FC0
07E007E0
0FC003F0
1FC003F8
1F8001F8
3F0000FC
7E00007E
FE00007F
ENDCHAR
STARTCHAR y
ENCODING 121
SWIDTH 591 0
DWIDTH 36 0
BBX 32 45 2 -12
BITMAP
FC00003F
7C00003E
7C00003E
7E00007E
3E00007C
3F0000FC
1F0000F8
1F8000F8
0F8001F8
0F8001F0
0FC003F0
07C003E0
07E007E0
03E007C0
03E007C0
03F00FC0
01F00F80
01F81F80
00F81F00
00F81F00
00FC3F00
007C3E00
007E7E00
003E7C00
003F7C00
001FFC00
001FF800
001FF800
000FF000
000FF000
0007F000
0007E000
0007E000
0007C000
000FC000
000F8000
000F8000
001F8000
003F0000
007F0000
1FFE0000
1FFE0000
1FFC0000
1FF80000
1FE00000
ENDCHAR
STARTCHAR z
ENCODING 122
SWIDTH 524 0
DWIDTH 32 0
BBX 26 33 3 0
BITMAP
7FFFFFC0
7FFFFFC0
7FFFFFC0
7FFFFFC0
7FFFFFC0
00001F80
00003F80
00007F00
0000FE00
0000FC00
0001F800
0003F000
0007F000
000FE000
001FC000
001F8000
003F0000
007E0000
00FE0000
01FC0000
03F80000
03F00000
07E00000
0FE00000
1FC00000
3F800000
7F000000
7E000000
FFFFFFC0
FFFFFFC0
FFFFFFC0
FFFFFFC0
FFFFFFC0
ENDCHAR
STARTCHAR braceleft
ENCODING 123
SWIDTH 636 0
DWIDTH 38 0
BBX 23 55 8 -9
BITMAP
0001FE
0007FE
001FFE
003FFE
003FFE
003F80
007E00
007C00
007C00
007C00
007C00
007C00
007C00
007C00
007C00
007C00
007C00
007C00
007C00
007C00
007C00
00FC00
00FC00
01F800
03F800
FFF000
FFE000
FF8000
FFE000
FFF000
07F800
01F800
00FC00
00FC00
007C00
007C00
007C00
007C00
007C00
007C00
007C00
007C00
007C00
007C00
007C00
007C00
007C00
007E00
007E00
003F80
003FFE
003FFE
001FFE
000FFE
0001FE
ENDCHAR
STARTCHAR bar
ENCODING 124
SWIDTH 336 0
DWIDTH 20 0
BBX 5 60 8 -14
BITMAP
F8
F8
F8
F8
F8
F8
F8
F8
F8
F8
F8
F8
F8
F8
F8
F8
F8
F8
F8
F8
F8
F8
F8
F8
F8
F8
F8
F8
F8
F8
F8
F8
F8
F8
F8
F8
F8
F8
F8
F8
F8
F8
F8
F8
F8
F8
F8
F8
F8
F8
F8
F8
F8
F8
F8
F8
F8
F8
F8
F8
ENDCHAR
STARTCHAR braceright
ENCODING 125
SWIDTH 636 0
DWIDTH 38 0
BBX 23 55 7 -9
BITMAP
FF0000
FFE000
FFF000
FFF800
FFF800
03F800
00FC00
00FC00
007C00
007C00
007C00
007C00
007C00
007C00
007C00
007C00
007C00
007C00
007C00
007C00
007C00
007E00
007E00
003F00
003F80
001FFE
000FFE
0003FE
000FFE
001FFE
003FC0
003F00
007E00
007E00
007C00
007C00
007C00
007C00
007C00
007C00
007C00
007C00
007C00
007C00
007C00
007C00
007C00
00FC00
00FC00
03F800
FFF800
FFF800
FFF000
FFE000
FF0000
ENDCHAR
STARTCHAR asciitilde
ENCODING 126
SWIDTH 837 0
DWIDTH 50 0
BBX 38 9 6 14
BITMAP
01FE00000C
07FFC0001C
1FFFF8007C
7FFFFF01FC
FFFFFFFFFC
FE03FFFFF8
F8007FFFE0
E0000FFF80
800001FE00
ENDCHAR
STARTCHAR nonbreakingspace
ENCODING 160
SWIDTH 636 0
DWIDTH 38 0
BBX 1 1 0 0
BITMAP
00
ENDCHAR
STARTCHAR exclamdown
ENCODING 161
SWIDTH 400 0
DWIDTH 24 0
BBX 6 44 9 0
BITMAP
FC
FC
FC
FC
FC
FC
FC
00
00
00
00
00
00
00
78
78
FC
FC
FC
FC
FC
FC
FC
FC
FC
FC
FC
FC
FC
FC
FC
FC
FC
FC
FC
FC
FC
FC
FC
FC
FC
FC
FC
FC
ENDCHAR
STARTCHAR cent
ENCODING 162
SWIDTH 636 0
DWIDTH 38 0
BBX 26 51 5 -9
BITMAP
0001C000
0001C000
0001C000
0001C000
0001C000
0001C000
0001C000
0001C000
000FF800
007FFE00
01FFFF80
03FFFFC0
07FFFFC0
0FF9C7C0
1FC1C1C0
3F81C040
3F01C000
7E01C000
7E01C000
7C01C000
FC01C000
F801C000
F801C000
F801C000
F801C000
F801C000
F801C000
F801C000
F801C000
F801C000
FC01C000
7C01C000
7E01C000
7E01C000
3F01C000
3F81C040
1FC1C1C0
0FF9C7C0
07FFFFC0
03FFFFC0
01FFFF80
007FFF00
000FF800
0001C000
0001C000
0001C000
0001C000
0001C000
0001C000
0001C000
0001C000
ENDCHAR
STARTCHAR sterling
ENCODING 163
SWIDTH 636 0
DWIDTH 38 0
BBX 28 45 4 0
BITMAP
0001FE00
000FFFC0
001FFFE0
003FFFE0
007FFFE0
007F01E0
00FC0020
00F80000
00F80000
01F80000
01F00000
01F00000
01F00000
01F00000
01F00000
01F00000
01F00000
01F00000
01F00000
01F00000
01F00000
01F00000
7FFFFE00
7FFFFE00
7FFFFE00
7FFFFE00
7FFFFE00
01F00000
01F00000
01F00000
01F00000
01F00000
01F00000
01F00000
01F00000
01F00000
01F00000
01F00000
01F00000
01F00000
FFFFFFF0
FFFFFFF0
FFFFFFF0
FFFFFFF0
FFFFFFF0
ENDCHAR
STARTCHAR currency
ENCODING 164
SWIDTH 636 0
DWIDTH 38 0
BBX 33 33 3 2
BITMAP
1000000400
3800000E00
7C00001F00
FE00003F80
7F07F07F00
3F9FFCFE00
1FFFFFFC00
0FFFFFF800
07FFFFF000
03FC1FE000
03F007E000
07E003F000
07C001F000
0FC001F800
0F8000F800
0F8000F800
0F8000F800
0F8000F800
0F8000F800
0FC001F800
07C001F000
07E003F000
03F007E000
03FC1FE000
07FFFFF000
0FFFFFF800
1FFFFFFC00
3F9FFCFE00
7F03E07F00
FE00003F80
7C00001F00
3800000E00
1000000400
ENDCHAR
STARTCHAR yen
ENCODING 165
SWIDTH 636 0
DWIDTH 38 0
BBX 33 44 2 0
BITMAP
FC00001F80
7E00003F00
7E00003F00
3F00007E00
1F00007C00
1F8000FC00
0F8000F800
0FC001F800
07C001F000
07E003F000
03E007E000
01F007C000
01F80FC000
00F80F8000
00FC1F8000
007C1F0000
007E3F0000
3FFE3FFE00
3FFF7FFE00
3FFF7FFE00
3FFFFFFE00
000FF80000
000FF80000
0007F00000
0007F00000
0003E00000
0003E00000
3FFFFFFE00
3FFFFFFE00
3FFFFFFE00
3FFFFFFE00
0003E00000
0003E00000
0003E00000
0003E00000
0003E00000
0003E00000
0003E00000
0003E00000
0003E00000
0003E00000
0003E00000
0003E00000
0003E00000
ENDCHAR
STARTCHAR brokenbar
ENCODING 166
SWIDTH 336 0
DWIDTH 20 0
BBX 5 52 8 -10
BITMAP
F8
F8
F8
F8
F8
F8
F8
F8
F8
F8
F8
F8
F8
F8
F8
F8
F8
F8
F8
F8
F8
F8
00
00
00
00
00
00
00
00
F8
F8
F8
F8
F8
F8
F8
F8
F8
F8
F8
F8
F8
F8
F8
F8
F8
F8
F8
F8
F8
F8
ENDCHAR
STARTCHAR section
ENCODING 167
SWIDTH 500 0
DWIDTH 30 0
BBX 25 51 3 -6
BITMAP
007F8000
03FFF800
07FFFC00
0FFFFC00
1FC0FC00
1F001C00
3F000400
3E000000
3E000000
3E000000
3F000000
3F800000
1FC00000
1FE00000
0FF80000
07FE0000
0FFF0000
1FFFC000
3E3FE000
7C0FF800
7C03FC00
F801FE00
F8007F00
F8003F00
F8001F80
FC001F80
FE000F80
7F000F80
3F800F80
3FE00F80
0FF01F00
07FC3E00
03FF7E00
00FFFC00
003FF000
000FF000
0007F800
0001FC00
0000FC00
00007E00
00003E00
00003E00
00003E00
00003E00
20007E00
3800FC00
3F01FC00
3FFFF800
3FFFF000
1FFFC000
01FF0000
ENDCHAR
STARTCHAR dieresis
ENCODING 168
SWIDTH 500 0
DWIDTH 30 0
BBX 18 6 6 39
BITMAP
FC0FC0
FC0FC0
FC0FC0
FC0FC0
FC0FC0
FC0FC0
ENDCHAR
STARTCHAR copyright
ENCODING 169
SWIDTH 1000 0
DWIDTH 60 0
BBX 43 44 8 0
BITMAP
00007FC00000
0003FFF80000
001FFFFE0000
003F803F8000
00FC0007E000
01F00001F000
03E00000F800
07C000007C00
078000001C00
0F003FC01E00
1E01FFF80F00
1C03FFFC0700
3C07F03C0380
380FC00C0380
781F800401C0
703F000001C0
703E000001C0
F03E000001E0
E07C000000E0
E07C000000E0
E07C000000E0
E07C000000E0
E07C000000E0
E07C000000E0
E07C000000E0
E07C000000E0
F07C000001E0
703E000001C0
703E000001C0
783F000001C0
381F80040380
3C0FC00C0380
1C07F03C0700
1E03FFFC0F00
0F01FFF81E00
07803FC01C00
07C000007C00
03E00000F800
01F00001F000
00FC0007C000
003F803F8000
001FFFFE0000
0003FFF80000
00007FC00000
ENDCHAR
STARTCHAR ordfeminine
ENCODING 170
SWIDTH 471 0
DWIDTH 28 0
BBX 21 31 3 14
BITMAP
07FE00
3FFF80
3FFFC0
3C07E0
2001F0
0000F0
000078
000078
000078
03FFF8
0FFFF8
3FFFF8
7F0078
780078
F00078
F00078
F000F8
F000F8
F001F8
F803F8
7E0FF8
3FFF78
1FFE78
07F000
000000
000000
000000
7FFFF8
7FFFF8
7FFFF8
7FFFF8
ENDCHAR
STARTCHAR guillemotleft
ENCODING 171
SWIDTH 611 0
DWIDTH 37 0
BBX 27 27 5 4
BITMAP
00040020
000C0060
001C00E0
003C01E0
007C03E0
00FC07E0
01F80FC0
07F03F80
0FC07E00
1F80FC00
3F01F800
7E03F000
FC07E000
F807C000
FC07E000
7E03F000
3F01F800
1F80FC00
0FC07E00
07F03F80
01F80FC0
00FC07E0
007C03E0
003C01E0
001C00E0
000C0060
00040020
ENDCHAR
STARTCHAR logicalnot
ENCODING 172
SWIDTH 837 0
DWIDTH 50 0
BBX 38 17 6 8
BITMAP
FFFFFFFFFC
FFFFFFFFFC
FFFFFFFFFC
FFFFFFFFFC
FFFFFFFFFC
000000007C
000000007C
000000007C
000000007C
000000007C
000000007C
000000007C
000000007C
000000007C
000000007C
000000007C
000000007C
ENDCHAR
STARTCHAR sfthyphen
ENCODING 173
SWIDTH 360 0
DWIDTH 22 0
BBX 16 5 3 14
BITMAP
FFFF
FFFF
FFFF
FFFF
FFFF
ENDCHAR
STARTCHAR registered
ENCODING 174
SWIDTH 1000 0
DWIDTH 60 0
BBX 44 44 8 0
BITMAP
00007FE00000
0003FFFC0000
000FFFFF0000
003FC03FC000
007E0007E000
01F80001F800
03E000007C00
07C000003E00
078000001E00
0F07FFC00F00
1E07FFF80780
1C07FFFC0380
3C07C07E03C0
3807C03F01C0
7807C01F01E0
7007C01F00E0
7007C01F00E0
F007C01F00F0
E007C03E0070
E007C07E0070
E007FFFC0070
E007FFF00070
E007FFC00070
E007C3E00070
E007C1F00070
E007C0F80070
F007C0FC00F0
7007C07C00E0
7007C03E00E0
7807C03E01E0
3807C01F01C0
3C07C01F83C0
1C07C00F8380
1E07C007C780
0F0000000F00
078000001E00
07C000003E00
03E000007C00
01F80001F000
007E0003E000
003FC03FC000
000FFFFF0000
0003FFFC0000
00007FE00000
ENDCHAR
STARTCHAR macron
ENCODING 175
SWIDTH 500 0
DWIDTH 30 0
BBX 18 5 6 40
BITMAP
FFFFC0
FFFFC0
FFFFC0
FFFFC0
FFFFC0
ENDCHAR
STARTCHAR degree
ENCODING 176
SWIDTH 500 0
DWIDTH 30 0
BBX 19 19 6 26
BITMAP
03F800
0FFE00
1FFF00
3FFF80
7E0FC0
7C07C0
F803E0
F001E0
F001E0
F001E0
F001E0
F001E0
F803E0
7C07C0
7E0FC0
3FFF80
1FFF00
0FFE00
03F800
ENDCHAR
STARTCHAR plusminus
ENCODING 177
SWIDTH 837 0
DWIDTH 50 0
BBX 37 37 7 0
BITMAP
0000F80000
0000F80000
0000F80000
0000F80000
0000F80000
0000F80000
0000F80000
0000F80000
0000F80000
0000F80000
0000F80000
FFFFFFFFF8
FFFFFFFFF8
FFFFFFFFF8
FFFFFFFFF8
FFFFFFFFF8
0000F80000
0000F80000
0000F80000
0000F80000
0000F80000
0000F80000
0000F80000
0000F80000
0000F80000
0000F80000
0000F80000
0000000000
0000000000
0000000000
0000000000
0000000000
FFFFFFFFF8
FFFFFFFFF8
FFFFFFFFF8
FFFFFFFFF8
FFFFFFFFF8
ENDCHAR
STARTCHAR twosuperior
ENCODING 178
SWIDTH 400 0
DWIDTH 24 0
BBX 17 25 3 20
BITMAP
0FF000
7FFC00
FFFE00
F03F00
800F00
000780
000780
000780
000780
000F00
000F00
001E00
003E00
007C00
00F800
01F000
03F000
07E000
0FC000
1F8000
3E0000
7C0000
FFFF80
FFFF80
FFFF80
ENDCHAR
STARTCHAR threesuperior
ENCODING 179
SWIDTH 400 0
DWIDTH 24 0
BBX 18 25 3 20
BITMAP
1FF000
7FFC00
7FFF00
601F00
000F80
000780
000780
000780
000F00
001F00
07FE00
07F800
07FE00
001F80
000780
0003C0
0003C0
0003C0
0003C0
0007C0
000780
C01F80
FFFF00
FFFC00
3FF000
ENDCHAR
STARTCHAR acute
ENCODING 180
SWIDTH 500 0
DWIDTH 30 0
BBX 14 11 11 37
BITMAP
00FC
01F8
03F0
03E0
07C0
0F80
1F00
1F00
3E00
7C00
F800
ENDCHAR
STARTCHAR mu
ENCODING 181
SWIDTH 636 0
DWIDTH 38 0
BBX 31 45 5 -12
BITMAP
F80003E0
F80003E0
F80003E0
F80003E0
F80003E0
F80003E0
F80003E0
F80003E0
F80003E0
F80003E0
F80003E0
F80003E0
F80003E0
F80003E0
F80003E0
F80003E0
F80003E0
F80003E0
F80003E0
F80003E0
F80003E0
F80003E0
F80003E0
F80007E0
FC0007E0
FC0007E0
FE000FE0
FF001FE0
FFC07FF2
FFFFFFFE
FBFFF9FE
F9FFF1FE
F8FFE0FE
F83F8078
F8000000
F8000000
F8000000
F8000000
F8000000
F8000000
F8000000
F8000000
F8000000
F8000000
F8000000
ENDCHAR
STARTCHAR paragraph
ENCODING 182
SWIDTH 636 0
DWIDTH 38 0
BBX 27 50 5 -6
BITMAP
007FFFE0
01FFFFE0
07FFFFE0
0FFFFFE0
1FFF81E0
3FFF81E0
7FFF81E0
7FFF81E0
7FFF81E0
FFFF81E0
FFFF81E0
FFFF81E0
FFFF81E0
FFFF81E0
FFFF81E0
FFFF81E0
FFFF81E0
7FFF81E0
7FFF81E0
3FFF81E0
1FFF81E0
0FFF81E0
07FF81E0
03FF81E0
007F81E0
000781E0
000781E0
000781E0
000781E0
000781E0
000781E0
000781E0
000781E0
000781E0
000781E0
000781E0
000781E0
000781E0
000781E0
000781E0
000781E0
000781E0
000781E0
000781E0
000781E0
000781E0
000781E0
000781E0
000781E0
000781E0
ENDCHAR
STARTCHAR periodcentered
ENCODING 183
SWIDTH 317 0
DWIDTH 19 0
BBX 5 7 6 18
BITMAP
F8
F8
F8
F8
F8
F8
F8
ENDCHAR
STARTCHAR cedilla
ENCODING 184
SWIDTH 500 0
DWIDTH 30 0
BBX 12 12 9 -12
BITMAP
0380
01C0
01E0
00E0
00F0
00F0
00F0
81F0
FFF0
FFE0
FFC0
7F80
ENDCHAR
STARTCHAR onesuperior
ENCODING 185
SWIDTH 400 0
DWIDTH 24 0
BBX 16 25 5 20
BITMAP
1FC0
FFC0
FFC0
E3C0
03C0
03C0
03C0
03C0
03C0
03C0
03C0
03C0
03C0
03C0
03C0
03C0
03C0
03C0
03C0
03C0
03C0
03C0
FFFF
FFFF
FFFF
ENDCHAR
STARTCHAR ordmasculine
ENCODING 186
SWIDTH 471 0
DWIDTH 28 0
BBX 23 31 3 14
BITMAP
00FE00
07FFC0
0FFFE0
1F83F0
3E00F8
7C007C
78003C
78003C
F0001E
F0001E
F0001E
F0001E
F0001E
F0001E
F0001E
F0001E
78003C
78003C
7C007C
3E00F8
1F83F0
0FFFE0
07FFC0
00FE00
000000
000000
000000
7FFFFC
7FFFFC
7FFFFC
7FFFFC
ENDCHAR
STARTCHAR guillemotright
ENCODING 187
SWIDTH 611 0
DWIDTH 37 0
BBX 27 27 6 4
BITMAP
80040000
C0060000
E0070000
F0078000
F807C000
FC07E000
7E03F000
3F81FC00
0FC07E00
07E03F00
03F01F80
01F80FC0
00FC07E0
007C03E0
00FC07E0
01F80FC0
03F01F80
07E03F00
0FC07E00
3F81FC00
7E03F000
FC07E000
F807C000
F0078000
E0070000
C0060000
80040000
ENDCHAR
STARTCHAR onequarter
ENCODING 188
SWIDTH 969 0
DWIDTH 58 0
BBX 51 46 5 -1
BITMAP
1FC000001F0000
FFC000003E0000
FFC000003E0000
E3C000007C0000
03C00000780000
03C00000F80000
03C00001F00000
03C00001F00000
03C00003E00000
03C00003C00000
03C00007C00000
03C0000F800000
03C0000F800000
03C0001F000000
03C0001E000000
03C0003E000000
03C0003C000000
03C0007C000000
03C000F8000000
03C000F0000000
03C001F0003E00
03C001E0007E00
FFFF03E000FE00
FFFF07C000FE00
FFFF078001DE00
00000F8003DE00
00000F00079E00
00001F00071E00
00003E000E1E00
00003C001E1E00
00007C001C1E00
00007800381E00
0000F800781E00
0001F000F01E00
0001F000E01E00
0003E001C01E00
0003C001FFFFE0
0007C001FFFFE0
000F8001FFFFE0
000F8000001E00
001F0000001E00
001E0000001E00
003E0000001E00
007C0000001E00
007C0000001E00
00F80000000000
ENDCHAR
STARTCHAR onehalf
ENCODING 189
SWIDTH 969 0
DWIDTH 58 0
BBX 49 46 5 -1
BITMAP
1FC000001F0000
FFC000003E0000
FFC000003E0000
E3C000007C0000
03C00000780000
03C00000F80000
03C00001F00000
03C00001F00000
03C00003E00000
03C00003C00000
03C00007C00000
03C0000F800000
03C0000F800000
03C0001F000000
03C0001E000000
03C0003E000000
03C0003C000000
03C0007C000000
03C000F8000000
03C000F0000000
03C001F00FF000
03C001E07FFC00
FFFF03E0FFFE00
FFFF07C0F03F00
FFFF0780800F00
00000F80000780
00000F00000780
00001F00000780
00003E00000780
00003C00000F00
00007C00000F00
00007800001E00
0000F800003E00
0001F000007C00
0001F00000F800
0003E00001F000
0003C00003F000
0007C00007E000
000F80000FC000
000F80001F8000
001F00003E0000
001E00007C0000
003E0000FFFF80
007C0000FFFF80
007C0000FFFF80
00F80000000000
ENDCHAR
STARTCHAR threequarters
ENCODING 190
SWIDTH 969 0
DWIDTH 58 0
BBX 53 46 3 -1
BITMAP
1FF0000007C000
7FFC00000F8000
7FFF00000F8000
601F00001F0000
000F80001E0000
000780003E0000
000780007C0000
000780007C0000
000F0000F80000
001F0000F00000
07FE0001F00000
07F80003E00000
07FE0003E00000
001F8007C00000
00078007800000
0003C00F800000
0003C00F000000
0003C01F000000
0003C03E000000
0007C03C000000
0007807C000F80
C01F8078001F80
FFFF00F8003F80
FFFC01F0003F80
3FF001E0007780
000003E000F780
000003C001E780
000007C001C780
00000F80038780
00000F00078780
00001F00070780
00001E000E0780
00003E001E0780
00007C003C0780
00007C00380780
0000F800700780
0000F0007FFFF8
0001F0007FFFF8
0003E0007FFFF8
0003E000000780
0007C000000780
00078000000780
000F8000000780
001F0000000780
001F0000000780
003E0000000000
ENDCHAR
STARTCHAR questiondown
ENCODING 191
SWIDTH 530 0
DWIDTH 32 0
BBX 23 45 4 -1
BITMAP
001F00
001F00
001F00
001F00
001F00
001F00
001F00
000000
000000
000000
000000
001F00
001F00
001F00
001F00
001F00
001F00
001F00
001F00
003F00
007E00
00FE00
01FC00
03FC00
07F800
0FF000
1FE000
3FC000
3F8000
7F0000
7E0000
FC0000
F80000
F80000
F80000
F80000
FC0002
FC0006
7E001E
7F80FE
3FFFFE
1FFFFE
0FFFFC
07FFF0
00FF00
ENDCHAR
STARTCHAR Agrave
ENCODING 192
SWIDTH 684 0
DWIDTH 41 0
BBX 40 56 0 0
BITMAP
0003F00000
0001F80000
0000F80000
00007C0000
00003E0000
00001E0000
00001F0000
00000F8000
0000000000
0000000000
0000000000
0000000000
0000FF0000
0000FF0000
0000FF0000
0001FF8000
0001FF8000
0001FF8000
0003FFC000
0003E7C000
0007E7E000
0007C3E000
0007C3E000
000FC3F000
000F81F000
000F81F000
001F81F800
001F00F800
003F00FC00
003E007C00
003E007C00
007E007E00
007C003E00
007C003E00
00FC001F00
00F8001F00
01F8001F80
01F0000F80
01F0000F80
03F0000FC0
03FFFFFFC0
07FFFFFFE0
07FFFFFFE0
07FFFFFFE0
0FFFFFFFF0
0F800001F0
0F800001F0
1F800001F8
1F000000F8
3F000000FC
3E0000007C
3E0000007C
7E0000007E
7C0000003E
7C0000003E
FC0000003F
ENDCHAR
STARTCHAR Aacute
ENCODING 193
SWIDTH 684 0
DWIDTH 41 0
BBX 40 56 0 0
BITMAP
000003F000
000003E000
000007C000
00000F8000
00001F0000
00001F0000
00003E0000
00007C0000
0000000000
0000000000
0000000000
0000000000
0000FF0000
0000FF0000
0000FF0000
0001FF8000
0001FF8000
0001FF8000
0003FFC000
0003E7C000
0007E7E000
0007C3E000
0007C3E000
000FC3F000
000F81F000
000F81F000
001F81F800
001F00F800
003F00FC00
003E007C00
003E007C00
007E007E00
007C003E00
007C003E00
00FC001F00
00F8001F00
01F8001F80
01F0000F80
01F0000F80
03F0000FC0
03FFFFFFC0
07FFFFFFE0
07FFFFFFE0
07FFFFFFE0
0FFFFFFFF0
0F800001F0
0F800001F0
1F800001F8
1F000000F8
3F000000FC
3E0000007C
3E0000007C
7E0000007E
7C0000003E
7C0000003E
FC0000003F
ENDCHAR
STARTCHAR Acircumflex
ENCODING 194
SWIDTH 684 0
DWIDTH 41 0
BBX 40 56 0 0
BITMAP
00003F0000
00007F8000
0000FFC000
0001F3E000
0001E1E000
0003C0F000
0007807800
000F807C00
0000000000
0000000000
0000000000
0000000000
0000FF0000
0000FF0000
0000FF0000
0001FF8000
0001FF8000
0001FF8000
0003FFC000
0003E7C000
0007E7E000
0007C3E000
0007C3E000
000FC3F000
000F81F000
000F81F000
001F81F800
001F00F800
003F00FC00
003E007C00
003E007C00
007E007E00
007C003E00
007C003E00
00FC001F00
00F8001F00
01F8001F80
01F0000F80
01F0000F80
03F0000FC0
03FFFFFFC0
07FFFFFFE0
07FFFFFFE0
07FFFFFFE0
0FFFFFFFF0
0F800001F0
0F800001F0
1F800001F8
1F000000F8
3F000000FC
3E0000007C
3E0000007C
7E0000007E
7C0000003E
7C0000003E
FC0000003F
ENDCHAR
STARTCHAR Atilde
ENCODING 195
SWIDTH 684 0
DWIDTH 41 0
BBX 40 56 0 0
BITMAP
0003E03C00
0007F83C00
000FFE7C00
000FFFF800
001F3FF800
001E0FF000
001E03E000
0000000000
0000000000
0000000000
0000000000
0000000000
0000FF0000
0000FF0000
0000FF0000
0001FF8000
0001FF8000
0001FF8000
0003FFC000
0003E7C000
0007E7E000
0007C3E000
0007C3E000
000FC3F000
000F81F000
000F81F000
001F81F800
001F00F800
003F00FC00
003E007C00
003E007C00
007E007E00
007C003E00
007C003E00
00FC001F00
00F8001F00
01F8001F80
01F0000F80
01F0000F80
03F0000FC0
03FFFFFFC0
07FFFFFFE0
07FFFFFFE0
07FFFFFFE0
0FFFFFFFF0
0F800001F0
0F800001F0
1F800001F8
1F000000F8
3F000000FC
3E0000007C
3E0000007C
7E0000007E
7C0000003E
7C0000003E
FC0000003F
ENDCHAR
STARTCHAR Adieresis
ENCODING 196
SWIDTH 684 0
DWIDTH 41 0
BBX 40 55 0 0
BITMAP
000FC0FC00
000FC0FC00
000FC0FC00
000FC0FC00
000FC0FC00
000FC0FC00
0000000000
0000000000
0000000000
0000000000
0000000000
0000FF0000
0000FF0000
0000FF0000
0001FF8000
0001FF8000
0001FF8000
0003FFC000
0003E7C000
0007E7E000
0007C3E000
0007C3E000
000FC3F000
000F81F000
000F81F000
001F81F800
001F00F800
003F00FC00
003E007C00
003E007C00
007E007E00
007C003E00
007C003E00
00FC001F00
00F8001F00
01F8001F80
01F0000F80
01F0000F80
03F0000FC0
03FFFFFFC0
07FFFFFFE0
07FFFFFFE0
07FFFFFFE0
0FFFFFFFF0
0F800001F0
0F800001F0
1F800001F8
1F000000F8
3F000000FC
3E0000007C
3E0000007C
7E0000007E
7C0000003E
7C0000003E
FC0000003F
ENDCHAR
STARTCHAR Aring
ENCODING 197
SWIDTH 684 0
DWIDTH 41 0
BBX 40 55 0 0
BITMAP
00007E0000
0001FF8000
0003FFC000
0007FFE000
0007C3E000
000F81F000
000F00F000
000F00F000
000F00F000
000F00F000
000F81E000
0007C3E000
0003FFC000
0001FF8000
0000FF0000
0000FF0000
0001FF8000
0001FF8000
0003FFC000
0003E7C000
0003E7C000
0007E7E000
0007C3E000
000FC3F000
000F81F000
000F81F000
001F81F800
001F00F800
003F00FC00
003E007C00
003E007C00
007E007E00
007C003E00
00FC003F00
00F8001F00
00F8001F00
01F8001F80
01F0000F80
03F0000FC0
03FFFFFFC0
03FFFFFFC0
07FFFFFFE0
07FFFFFFE0
07FFFFFFE0
0FC00003F0
0F800001F0
1F800001F8
1F000000F8
1F000000F8
3F000000FC
3E0000007C
7E0000007E
7C0000003E
7C0000003E
FC0000003F
ENDCHAR
STARTCHAR AE
ENCODING 198
SWIDTH 974 0
DWIDTH 58 0
BBX 54 44 0 0
BITMAP
00003FFFFFFFF8
00003FFFFFFFF8
00007FFFFFFFF8
00007FFFFFFFF8
0000FFFFFFFFF8
0000F83E000000
0001F83E000000
0001F83E000000
0001F03E000000
0003F03E000000
0003E03E000000
0007E03E000000
0007C03E000000
0007C03E000000
000FC03E000000
000F803E000000
001F803E000000
001F003E000000
001F003FFFFFF8
003F003FFFFFF8
003E003FFFFFF8
007E003FFFFFF8
007C003FFFFFF8
00FC003E000000
00F8003E000000
00F8003E000000
01F8003E000000
01F0003E000000
03FFFFFE000000
03FFFFFE000000
03FFFFFE000000
07FFFFFE000000
07FFFFFE000000
0FC0003E000000
0F80003E000000
1F80003E000000
1F80003E000000
1F00003E000000
3F00003E000000
3E00003FFFFFFC
7E00003FFFFFFC
7C00003FFFFFFC
7C00003FFFFFFC
FC00003FFFFFFC
ENDCHAR
STARTCHAR Ccedilla
ENCODING 199
SWIDTH 698 0
DWIDTH 42 0
BBX 35 57 3 -12
BITMAP
0000FFE000
000FFFFC00
003FFFFF00
007FFFFFC0
01FFFFFFE0
03FF003FE0
07F80007E0
07F00001E0
0FC0000060
1F80000020
1F00000000
3F00000000
3E00000000
7E00000000
7C00000000
7C00000000
7C00000000
F800000000
F800000000
F800000000
F800000000
F800000000
F800000000
F800000000
F800000000
F800000000
F800000000
F800000000
F800000000
7C00000000
7C00000000
7C00000000
7E00000000
3E00000000
3F00000000
1F00000000
1F80000020
0FC0000060
07F00001E0
07F80007E0
03FF003FE0
01FFFFFFE0
007FFFFFC0
003FFFFF00
000FFFFC00
0000FFC000
0000038000
000003C000
000001C000
000001E000
000001E000
000001E000
000103E000
0001FFE000
0001FFC000
0001FF8000
0000FF0000
ENDCHAR
STARTCHAR Egrave
ENCODING 200
SWIDTH 631 0
DWIDTH 38 0
BBX 28 56 6 0
BITMAP
01F80000
00FC0000
007C0000
003E0000
001F0000
000F0000
000F8000
0007C000
00000000
00000000
00000000
00000000
FFFFFFE0
FFFFFFE0
FFFFFFE0
FFFFFFE0
FFFFFFE0
F8000000
F8000000
F8000000
F8000000
F8000000
F8000000
F8000000
F8000000
F8000000
F8000000
F8000000
F8000000
F8000000
FFFFFFE0
FFFFFFE0
FFFFFFE0
FFFFFFE0
FFFFFFE0
F8000000
F8000000
F8000000
F8000000
F8000000
F8000000
F8000000
F8000000
F8000000
F8000000
F8000000
F8000000
F8000000
F8000000
F8000000
F8000000
FFFFFFF0
FFFFFFF0
FFFFFFF0
FFFFFFF0
FFFFFFF0
ENDCHAR
STARTCHAR Eacute
ENCODING 201
SWIDTH 631 0
DWIDTH 38 0
BBX 28 56 6 0
BITMAP
0001F800
0001F000
0003E000
0007C000
000F8000
000F8000
001F0000
003E0000
00000000
00000000
00000000
00000000
FFFFFFE0
FFFFFFE0
FFFFFFE0
FFFFFFE0
FFFFFFE0
F8000000
F8000000
F8000000
F8000000
F8000000
F8000000
F8000000
F8000000
F8000000
F8000000
F8000000
F8000000
F8000000
FFFFFFE0
FFFFFFE0
FFFFFFE0
FFFFFFE0
FFFFFFE0
F8000000
F8000000
F8000000
F8000000
F8000000
F8000000
F8000000
F8000000
F8000000
F8000000
F8000000
F8000000
F8000000
F8000000
F8000000
F8000000
FFFFFFF0
FFFFFFF0
FFFFFFF0
FFFFFFF0
FFFFFFF0
ENDCHAR
STARTCHAR Ecircumflex
ENCODING 202
SWIDTH 631 0
DWIDTH 38 0
BBX 28 56 6 0
BITMAP
001F8000
003FC000
007FE000
00F9F000
00F0F000
01E07800
03C03C00
07C03E00
00000000
00000000
00000000
00000000
FFFFFFE0
FFFFFFE0
FFFFFFE0
FFFFFFE0
FFFFFFE0
F8000000
F8000000
F8000000
F8000000
F8000000
F8000000
F8000000
F8000000
F8000000
F8000000
F8000000
F8000000
F8000000
FFFFFFE0
FFFFFFE0
FFFFFFE0
FFFFFFE0
FFFFFFE0
F8000000
F8000000
F8000000
F8000000
F8000000
F8000000
F8000000
F8000000
F8000000
F8000000
F8000000
F8000000
F8000000
F8000000
F8000000
F8000000
FFFFFFF0
FFFFFFF0
FFFFFFF0
FFFFFFF0
FFFFFFF0
ENDCHAR
STARTCHAR Edieresis
ENCODING 203
SWIDTH 631 0
DWIDTH 38 0
BBX 28 55 6 0
BITMAP
07E07E00
07E07E00
07E07E00
07E07E00
07E07E00
07E07E00
00000000
00000000
00000000
00000000
00000000
FFFFFFE0
FFFFFFE0
FFFFFFE0
FFFFFFE0
FFFFFFE0
F8000000
F8000000
F8000000
F8000000
F8000000
F8000000
F8000000
F8000000
F8000000
F8000000
F8000000
F8000000
F8000000
FFFFFFE0
FFFFFFE0
FFFFFFE0
FFFFFFE0
FFFFFFE0
F8000000
F8000000
F8000000
F8000000
F8000000
F8000000
F8000000
F8000000
F8000000
F8000000
F8000000
F8000000
F8000000
F8000000
F8000000
F8000000
FFFFFFF0
FFFFFFF0
FFFFFFF0
FFFFFFF0
FFFFFFF0
ENDCHAR
STARTCHAR Igrave
ENCODING 204
SWIDTH 294 0
DWIDTH 18 0
BBX 11 56 2 0
BITMAP
FC00
7E00
3E00
1F00
0F80
0780
07C0
03E0
0000
0000
0000
0000
0F80
0F80
0F80
0F80
0F80
0F80
0F80
0F80
0F80
0F80
0F80
0F80
0F80
0F80
0F80
0F80
0F80
0F80
0F80
0F80
0F80
0F80
0F80
0F80
0F80
0F80
0F80
0F80
0F80
0F80
0F80
0F80
0F80
0F80
0F80
0F80
0F80
0F80
0F80
0F80
0F80
0F80
0F80
0F80
ENDCHAR
STARTCHAR Iacute
ENCODING 205
SWIDTH 294 0
DWIDTH 18 0
BBX 11 56 5 0
BITMAP
07E0
07C0
0F80
1F00
3E00
3E00
7C00
F800
0000
0000
0000
0000
7C00
7C00
7C00
7C00
7C00
7C00
7C00
7C00
7C00
7C00
7C00
7C00
7C00
7C00
7C00
7C00
7C00
7C00
7C00
7C00
7C00
7C00
7C00
7C00
7C00
7C00
7C00
7C00
7C00
7C00
7C00
7C00
7C00
7C00
7C00
7C00
7C00
7C00
7C00
7C00
7C00
7C00
7C00
7C00
ENDCHAR
STARTCHAR Icircumflex
ENCODING 206
SWIDTH 294 0
DWIDTH 18 0
BBX 18 56 0 0
BITMAP
03F000
07F800
0FFC00
1F3E00
1E1E00
3C0F00
780780
F807C0
000000
000000
000000
000000
03E000
03E000
03E000
03E000
03E000
03E000
03E000
03E000
03E000
03E000
03E000
03E000
03E000
03E000
03E000
03E000
03E000
03E000
03E000
03E000
03E000
03E000
03E000
03E000
03E000
03E000
03E000
03E000
03E000
03E000
03E000
03E000
03E000
03E000
03E000
03E000
03E000
03E000
03E000
03E000
03E000
03E000
03E000
03E000
ENDCHAR
STARTCHAR Idieresis
ENCODING 207
SWIDTH 294 0
DWIDTH 18 0
BBX 18 55 0 0
BITMAP
FC0FC0
FC0FC0
FC0FC0
FC0FC0
FC0FC0
FC0FC0
000000
000000
000000
000000
000000
03E000
03E000
03E000
03E000
03E000
03E000
03E000
03E000
03E000
03E000
03E000
03E000
03E000
03E000
03E000
03E000
03E000
03E000
03E000
03E000
03E000
03E000
03E000
03E000
03E000
03E000
03E000
03E000
03E000
03E000
03E000
03E000
03E000
03E000
03E000
03E000
03E000
03E000
03E000
03E000
03E000
03E000
03E000
03E000
ENDCHAR
STARTCHAR Eth
ENCODING 208
SWIDTH 774 0
DWIDTH 47 0
BBX 43 44 0 0
BITMAP
03FFFF800000
03FFFFF80000
03FFFFFF0000
03FFFFFFC000
03FFFFFFF000
03E000FFF800
03E00007FC00
03E00001FE00
03E00000FF00
03E000003F00
03E000001F80
03E000001F80
03E000000FC0
03E000000FC0
03E0000007C0
03E0000007C0
03E0000007E0
03E0000003E0
03E0000003E0
FFFFF80003E0
FFFFF80003E0
FFFFF80003E0
FFFFF80003E0
FFFFF80003E0
03E0000003E0
03E0000003E0
03E0000003E0
03E0000007E0
03E0000007C0
03E0000007C0
03E000000FC0
03E000000FC0
03E000001F80
03E000001F80
03E000003F00
03E00000FF00
03E00001FE00
03E00007FC00
03E0007FF800
03FFFFFFF000
03FFFFFFC000
03FFFFFF0000
03FFFFF80000
03FFFF800000
ENDCHAR
STARTCHAR Ntilde
ENCODING 209
SWIDTH 748 0
DWIDTH 45 0
BBX 33 56 6 0
BITMAP
007C078000
00FF078000
01FFCF8000
01FFFF0000
03E7FF0000
03C1FE0000
03C07C0000
0000000000
0000000000
0000000000
0000000000
0000000000
FF00000F80
FF00000F80
FF80000F80
FF80000F80
FFC0000F80
FFC0000F80
FFE0000F80
FBE0000F80
FBF0000F80
F9F8000F80
F9F8000F80
F8FC000F80
F8FC000F80
F87E000F80
F83E000F80
F83F000F80
F81F000F80
F81F800F80
F80F800F80
F80FC00F80
F807E00F80
F807E00F80
F803F00F80
F803F00F80
F801F80F80
F800F80F80
F800FC0F80
F8007C0F80
F8007E0F80
F8003E0F80
F8003F0F80
F8001F0F80
F8001F8F80
F8000FCF80
F8000FCF80
F80007EF80
F80003EF80
F80003FF80
F80001FF80
F80001FF80
F80000FF80
F80000FF80
F800007F80
F800007F80
ENDCHAR
STARTCHAR Ograve
ENCODING 210
SWIDTH 787 0
DWIDTH 47 0
BBX 40 57 3 -1
BITMAP
0003F00000
0001F80000
0000F80000
00007C0000
00003E0000
00001E0000
00001F0000
00000F8000
0000000000
0000000000
0000000000
0001FF8000
000FFFF000
003FFFFC00
00FFFFFF00
01FFFFFF80
03FF00FFC0
07F8001FE0
0FF0000FF0
0FC00003F0
1F800001F8
1F800001F8
3F000000FC
3E0000007C
7E0000007E
7C0000003E
7C0000003E
7C0000003E
FC0000003F
F80000001F
F80000001F
F80000001F
F80000001F
F80000001F
F80000001F
F80000001F
F80000001F
F80000001F
F80000001F
FC0000003F
7C0000003E
7C0000003E
7C0000003E
7E0000007E
3E0000007C
3F000000FC
1F800001F8
1F800001F8
0FC00003F0
0FF0000FF0
07F8001FE0
03FF00FFC0
01FFFFFF80
00FFFFFF00
003FFFFC00
000FFFF000
0001FF8000
ENDCHAR
STARTCHAR Oacute
ENCODING 211
SWIDTH 787 0
DWIDTH 47 0
BBX 40 57 3 -1
BITMAP
000003F000
000003E000
000007C000
00000F8000
00001F0000
00001F0000
00003E0000
00007C0000
0000000000
0000000000
0000000000
0001FF8000
000FFFF000
003FFFFC00
00FFFFFF00
01FFFFFF80
03FF00FFC0
07F8001FE0
0FF0000FF0
0FC00003F0
1F800001F8
1F800001F8
3F000000FC
3E0000007C
7E0000007E
7C0000003E
7C0000003E
7C0000003E
FC0000003F
F80000001F
F80000001F
F80000001F
F80000001F
F80000001F
F80000001F
F80000001F
F80000001F
F80000001F
F80000001F
FC0000003F
7C0000003E
7C0000003E
7C0000003E
7E0000007E
3E0000007C
3F000000FC
1F800001F8
1F800001F8
0FC00003F0
0FF0000FF0
07F8001FE0
03FF00FFC0
01FFFFFF80
00FFFFFF00
003FFFFC00
000FFFF000
0001FF8000
ENDCHAR
STARTCHAR Ocircumflex
ENCODING 212
SWIDTH 787 0
DWIDTH 47 0
BBX 40 57 3 -1
BITMAP
00003F0000
00007F8000
0000FFC000
0001F3E000
0001E1E000
0003C0F000
0007807800
000F807C00
0000000000
0000000000
0000000000
0001FF8000
000FFFF000
003FFFFC00
00FFFFFF00
01FFFFFF80
03FF00FFC0
07F8001FE0
0FF0000FF0
0FC00003F0
1F800001F8
1F800001F8
3F000000FC
3E0000007C
7E0000007E
7C0000003E
7C0000003E
7C0000003E
FC0000003F
F80000001F
F80000001F
F80000001F
F80000001F
F80000001F
F80000001F
F80000001F
F80000001F
F80000001F
F80000001F
FC0000003F
7C0000003E
7C0000003E
7C0000003E
7E0000007E
3E0000007C
3F000000FC
1F800001F8
1F800001F8
0FC00003F0
0FF0000FF0
07F8001FE0
03FF00FFC0
01FFFFFF80
00FFFFFF00
003FFFFC00
000FFFF000
0001FF8000
ENDCHAR
STARTCHAR Otilde
ENCODING 213
SWIDTH 787 0
DWIDTH 47 0
BBX 40 57 3 -1
BITMAP
0003E03C00
0007F83C00
000FFE7C00
000FFFF800
001F3FF800
001E0FF000
001E03E000
0000000000
0000000000
0000000000
0000000000
0001FF8000
000FFFF000
003FFFFC00
00FFFFFF00
01FFFFFF80
03FF00FFC0
07F8001FE0
0FF0000FF0
0FC00003F0
1F800001F8
1F800001F8
3F000000FC
3E0000007C
7E0000007E
7C0000003E
7C0000003E
7C0000003E
FC0000003F
F80000001F
F80000001F
F80000001F
F80000001F
F80000001F
F80000001F
F80000001F
F80000001F
F80000001F
F80000001F
FC0000003F
7C0000003E
7C0000003E
7C0000003E
7E0000007E
3E0000007C
3F000000FC
1F800001F8
1F800001F8
0FC00003F0
0FF0000FF0
07F8001FE0
03FF00FFC0
01FFFFFF80
00FFFFFF00
003FFFFC00
000FFFF000
0001FF8000
ENDCHAR
STARTCHAR Odieresis
ENCODING 214
SWIDTH 787 0
DWIDTH 47 0
BBX 40 56 3 -1
BITMAP
000FC0FC00
000FC0FC00
000FC0FC00
000FC0FC00
000FC0FC00
000FC0FC00
0000000000
0000000000
0000000000
0000000000
0001FF8000
000FFFF000
003FFFFC00
00FFFFFF00
01FFFFFF80
03FF00FFC0
07F8001FE0
0FF0000FF0
0FC00003F0
1F800001F8
1F800001F8
3F000000FC
3E0000007C
7E0000007E
7C0000003E
7C0000003E
7C0000003E
FC0000003F
F80000001F
F80000001F
F80000001F
F80000001F
F80000001F
F80000001F
F80000001F
F80000001F
F80000001F
F80000001F
FC0000003F
7C0000003E
7C0000003E
7C0000003E
7E0000007E
3E0000007C
3F000000FC
1F800001F8
1F800001F8
0FC00003F0
0FF0000FF0
07F8001FE0
03FF00FFC0
01FFFFFF80
00FFFFFF00
003FFFFC00
000FFFF000
0001FF8000
ENDCHAR
STARTCHAR multiply
ENCODING 215
SWIDTH 837 0
DWIDTH 50 0
BBX 34 34 8 2
BITMAP
1000000200
3800000700
7C00000F80
FE00001FC0
7F00003F80
3F80007F00
1FC000FE00
0FE001FC00
07F003F800
03F807F000
01FC0FE000
00FE1FC000
007F3F8000
003FFF0000
001FFE0000
000FFC0000
0007F80000
0007F80000
000FFC0000
001FFE0000
003FFF0000
007F3F8000
00FE1FC000
01FC0FE000
03F807F000
07F003F800
0FE001FC00
1FC000FE00
3F80007F00
7F00003F80
FE00001FC0
7C00000F80
3800000700
1000000200
ENDCHAR
STARTCHAR Oslash
ENCODING 216
SWIDTH 787 0
DWIDTH 47 0
BBX 40 48 3 -2
BITMAP
0000000004
0000FF8006
000FFFF80F
003FFFFE1F
007FFFFF1E
01FFFFFFFC
03FF00FFFC
07F8001FF8
07F0000FF0
0FC00003F8
1F800007F8
1F80000FFC
3F00000FFC
3E00001F7E
7E00003E7E
7C00007C3E
7C0000FC3E
7C0001F83E
FC0003F03F
F80007E01F
F8000FC01F
F8001F801F
F8001F001F
F8003E001F
F8007C001F
F800F8001F
F801F8001F
F803F0001F
F807E0001F
F80FC0003F
FC1F80003E
7C3F00003E
7C3E00003E
7E7C00007E
7EF800007C
3FF00000FC
3FF00001F8
1FE00001F8
1FC00003F0
0FF0000FE0
1FF8001FE0
3FFF00FFC0
3FFFFFFF80
78FFFFFE00
F87FFFFC00
F01FFFF000
6001FF8000
6000000000
ENDCHAR
STARTCHAR Ugrave
ENCODING 217
SWIDTH 731 0
DWIDTH 44 0
BBX 33 57 6 -1
BITMAP
007E000000
003F000000
001F000000
000F800000
0007C00000
0003C00000
0003E00000
0001F00000
0000000000
0000000000
0000000000
0000000000
F800000F80
F800000F80
F800000F80
F800000F80
F800000F80
F800000F80
F800000F80
F800000F80
F800000F80
F800000F80
F800000F80
F800000F80
F800000F80
F800000F80
F800000F80
F800000F80
F800000F80
F800000F80
F800000F80
F800000F80
F800000F80
F800000F80
F800000F80
F800000F80
F800000F80
F800000F80
F800000F80
F800000F80
F800000F80
F800000F80
F800000F80
F800000F80
FC00001F80
7C00001F00
7C00001F00
7E00003F00
3E00003E00
3F00007E00
1FC001FC00
1FF007FC00
0FFFFFF800
07FFFFF000
03FFFFC000
00FFFF8000
001FF80000
ENDCHAR
STARTCHAR Uacute
ENCODING 218
SWIDTH 731 0
DWIDTH 44 0
BBX 33 57 6 -1
BITMAP
00007E0000
00007C0000
0000F80000
0001F00000
0003E00000
0003E00000
0007C00000
000F800000
0000000000
0000000000
0000000000
0000000000
F800000F80
F800000F80
F800000F80
F800000F80
F800000F80
F800000F80
F800000F80
F800000F80
F800000F80
F800000F80
F800000F80
F800000F80
F800000F80
F800000F80
F800000F80
F800000F80
F800000F80
F800000F80
F800000F80
F800000F80
F800000F80
F800000F80
F800000F80
F800000F80
F800000F80
F800000F80
F800000F80
F800000F80
F800000F80
F800000F80
F800000F80
F800000F80
FC00001F80
7C00001F00
7C00001F00
7E00003F00
3E00003E00
3F00007E00
1FC001FC00
1FF007FC00
0FFFFFF800
07FFFFF000
03FFFFC000
00FFFF8000
001FF80000
ENDCHAR
STARTCHAR Ucircumflex
ENCODING 219
SWIDTH 731 0
DWIDTH 44 0
BBX 33 57 6 -1
BITMAP
0007E00000
000FF00000
001FF80000
003E7C0000
003C3C0000
00781E0000
00F00F0000
01F00F8000
0000000000
0000000000
0000000000
0000000000
F800000F80
F800000F80
F800000F80
F800000F80
F800000F80
F800000F80
F800000F80
F800000F80
F800000F80
F800000F80
F800000F80
F800000F80
F800000F80
F800000F80
F800000F80
F800000F80
F800000F80
F800000F80
F800000F80
F800000F80
F800000F80
F800000F80
F800000F80
F800000F80
F800000F80
F800000F80
F800000F80
F800000F80
F800000F80
F800000F80
F800000F80
F800000F80
FC00001F80
7C00001F00
7C00001F00
7E00003F00
3E00003E00
3F00007E00
1FC001FC00
1FF007FC00
0FFFFFF800
07FFFFF000
03FFFFC000
00FFFF8000
001FF80000
ENDCHAR
STARTCHAR Udieresis
ENCODING 220
SWIDTH 731 0
DWIDTH 44 0
BBX 33 56 6 -1
BITMAP
01F81F8000
01F81F8000
01F81F8000
01F81F8000
01F81F8000
01F81F8000
0000000000
0000000000
0000000000
0000000000
0000000000
F800000F80
F800000F80
F800000F80
F800000F80
F800000F80
F800000F80
F800000F80
F800000F80
F800000F80
F800000F80
F800000F80
F800000F80
F800000F80
F800000F80
F800000F80
F800000F80
F800000F80
F800000F80
F800000F80
F800000F80
F800000F80
F800000F80
F800000F80
F800000F80
F800000F80
F800000F80
F800000F80
F800000F80
F800000F80
F800000F80
F800000F80
F800000F80
FC00001F80
7C00001F00
7C00001F00
7E00003F00
3E00003E00
3F00007E00
1FC001FC00
1FF007FC00
0FFFFFF800
07FFFFF000
03FFFFC000
00FFFF8000
001FF80000
ENDCHAR
STARTCHAR Yacute
ENCODING 221
SWIDTH 610 0
DWIDTH 37 0
BBX 37 56 -1 0
BITMAP
00000FC000
00000F8000
00001F0000
00003E0000
00007C0000
00007C0000
0000F80000
0001F00000
0000000000
0000000000
0000000000
0000000000
FC000001F8
7E000003F0
3F000007E0
3F80000FE0
1F80000FC0
0FC0001F80
07E0003F80
07E0003F00
03F0007E00
01F800FC00
01F800FC00
00FC01F800
007E03F000
007E03F000
003F07E000
001F8FC000
001FDFC000
000FDF8000
0007FF0000
0003FE0000
0003FE0000
0001FC0000
0000F80000
0000F80000
0000F80000
0000F80000
0000F80000
0000F80000
0000F80000
0000F80000
0000F80000
0000F80000
0000F80000
0000F80000
0000F80000
0000F80000
0000F80000
0000F80000
0000F80000
0000F80000
0000F80000
0000F80000
0000F80000
0000F80000
ENDCHAR
STARTCHAR Thorn
ENCODING 222
SWIDTH 604 0
DWIDTH 36 0
BBX 28 44 6 0
BITMAP
F8000000
F8000000
F8000000
F8000000
F8000000
F8000000
F8000000
F8000000
FFFFC000
FFFFFC00
FFFFFE00
FFFFFF80
FFFFFF80
F8007FC0
F8000FE0
F80007E0
F80003E0
F80003F0
F80001F0
F80001F0
F80001F0
F80001F0
F80001F0
F80001F0
F80003F0
F80003E0
F80007E0
F8000FE0
F8007FC0
FFFFFF80
FFFFFF80
FFFFFE00
FFFFF800
FFFFE000
F8000000
F8000000
F8000000
F8000000
F8000000
F8000000
F8000000
F8000000
F8000000
F8000000
ENDCHAR
STARTCHAR germandbls
ENCODING 223
SWIDTH 629 0
DWIDTH 38 0
BBX 30 47 5 -1
BITMAP
007FC000
03FFF000
0FFFFC00
1FFFFE00
3FFFFF00
3FC07F00
7F001F80
7E000F80
FC000F80
FC0007C0
F80007C0
F8000FC0
F8007FC0
F801FFC0
F803FC00
F807F000
F807C000
F80FC000
F80F8000
F80F8000
F80F8000
F80F8000
F80FC000
F80FE000
F807F000
F807FC00
F803FE00
F801FF80
F8007FC0
F8003FE0
F8000FF0
F80003F8
F80001F8
F80000FC
F800007C
F800007C
F800007C
F800007C
F800007C
F80000FC
F88001F8
F8F807F8
F8FFFFF0
F8FFFFE0
F8FFFFC0
F87FFF80
000FF800
ENDCHAR
STARTCHAR agrave
ENCODING 224
SWIDTH 612 0
DWIDTH 37 0
BBX 28 49 3 -1
BITMAP
0FC00000
07E00000
03F00000
01F00000
00F80000
007C0000
003E0000
003E0000
001F0000
000F8000
0007C000
00000000
00000000
00000000
007FC000
07FFF800
1FFFFE00
3FFFFF00
3FFFFF80
3F007FC0
38000FC0
200007E0
000003E0
000003E0
000001F0
000001F0
000001F0
007FFFF0
03FFFFF0
0FFFFFF0
1FFFFFF0
3FFFFFF0
7FE001F0
7F0001F0
7C0001F0
FC0001F0
F80001F0
F80003F0
F80003F0
F80007F0
F80007F0
FC000FF0
7E003FF0
7F80FFF0
3FFFFDF0
3FFFF9F0
1FFFF1F0
07FFC1F0
01FF0000
ENDCHAR
STARTCHAR aacute
ENCODING 225
SWIDTH 612 0
DWIDTH 37 0
BBX 28 49 3 -1
BITMAP
00003F00
00007E00
0000FC00
0000F800
0001F000
0003E000
0007C000
0007C000
000F8000
001F0000
003E0000
00000000
00000000
00000000
007FC000
07FFF800
1FFFFE00
3FFFFF00
3FFFFF80
3F007FC0
38000FC0
200007E0
000003E0
000003E0
000001F0
000001F0
000001F0
007FFFF0
03FFFFF0
0FFFFFF0
1FFFFFF0
3FFFFFF0
7FE001F0
7F0001F0
7C0001F0
FC0001F0
F80001F0
F80003F0
F80003F0
F80007F0
F80007F0
FC000FF0
7E003FF0
7F80FFF0
3FFFFDF0
3FFFF9F0
1FFFF1F0
07FFC1F0
01FF0000
ENDCHAR
STARTCHAR acircumflex
ENCODING 226
SWIDTH 612 0
DWIDTH 37 0
BBX 28 49 3 -1
BITMAP
000F8000
001FC000
001FC000
003FE000
007DF000
0078F000
00F8F800
01F07C00
01E03C00
03C01E00
07C01F00
00000000
00000000
00000000
007FC000
07FFF800
1FFFFE00
3FFFFF00
3FFFFF80
3F007FC0
38000FC0
200007E0
000003E0
000003E0
000001F0
000001F0
000001F0
007FFFF0
03FFFFF0
0FFFFFF0
1FFFFFF0
3FFFFFF0
7FE001F0
7F0001F0
7C0001F0
FC0001F0
F80001F0
F80003F0
F80003F0
F80007F0
F80007F0
FC000FF0
7E003FF0
7F80FFF0
3FFFFDF0
3FFFF9F0
1FFFF1F0
07FFC1F0
01FF0000
ENDCHAR
STARTCHAR atilde
ENCODING 227
SWIDTH 612 0
DWIDTH 37 0
BBX 28 48 3 -1
BITMAP
01F01E00
03F81E00
07FC1E00
07FE1E00
079F3C00
0F0FFC00
0F07FC00
0F03F800
0F01E000
00000000
00000000
00000000
00000000
007FC000
07FFF800
1FFFFE00
3FFFFF00
3FFFFF80
3F007FC0
38000FC0
200007E0
000003E0
000003E0
000001F0
000001F0
000001F0
007FFFF0
03FFFFF0
0FFFFFF0
1FFFFFF0
3FFFFFF0
7FE001F0
7F0001F0
7C0001F0
FC0001F0
F80001F0
F80003F0
F80003F0
F80007F0
F80007F0
FC000FF0
7E003FF0
7F80FFF0
3FFFFDF0
3FFFF9F0
1FFFF1F0
07FFC1F0
01FF0000
ENDCHAR
STARTCHAR adieresis
ENCODING 228
SWIDTH 612 0
DWIDTH 37 0
BBX 28 46 3 -1
BITMAP
07E07E00
07E07E00
07E07E00
07E07E00
07E07E00
07E07E00
00000000
00000000
00000000
00000000
00000000
007FC000
07FFF800
1FFFFE00
3FFFFF00
3FFFFF80
3F007FC0
38000FC0
200007E0
000003E0
000003E0
000001F0
000001F0
000001F0
007FFFF0
03FFFFF0
0FFFFFF0
1FFFFFF0
3FFFFFF0
7FE001F0
7F0001F0
7C0001F0
FC0001F0
F80001F0
F80003F0
F80003F0
F80007F0
F80007F0
FC000FF0
7E003FF0
7F80FFF0
3FFFFDF0
3FFFF9F0
1FFFF1F0
07FFC1F0
01FF0000
ENDCHAR
STARTCHAR aring
ENCODING 229
SWIDTH 612 0
DWIDTH 37 0
BBX 28 54 3 -1
BITMAP
001F8000
007FE000
00FFF000
01FFF800
01F0F800
03E07C00
03C03C00
03C03C00
03C03C00
03C03C00
03E07C00
01F0F800
01FFF800
00FFF000
007FE000
001F8000
00000000
00000000
00000000
007FC000
07FFF800
1FFFFE00
3FFFFF00
3FFFFF80
3F007FC0
38000FC0
200007E0
000003E0
000003E0
000001F0
000001F0
000001F0
007FFFF0
03FFFFF0
0FFFFFF0
1FFFFFF0
3FFFFFF0
7FE001F0
7F0001F0
7C0001F0
FC0001F0
F80001F0
F80003F0
F80003F0
F80007F0
F80007F0
FC000FF0
7E003FF0
7F80FFF0
3FFFFDF0
3FFFF9F0
1FFFF1F0
07FFC1F0
01FF0000
ENDCHAR
STARTCHAR ae
ENCODING 230
SWIDTH 981 0
DWIDTH 59 0
BBX 52 35 3 -1
BITMAP
007FC0007FC000
07FFF803FFF000
1FFFFE0FFFFC00
3FFFFF1FFFFE00
3FFFFFBFFFFF00
3F007FFFC07F80
38001FFE000FC0
20000FFC0007C0
000007F80003E0
000007F00003E0
000003F00001E0
000003E00001F0
000003E00001F0
007FFFFFFFFFF0
03FFFFFFFFFFF0
0FFFFFFFFFFFF0
1FFFFFFFFFFFF0
3FFFFFFFFFFFF0
7FC003E0000000
7E0003E0000000
FC0003E0000000
FC0003F0000000
F80007F0000000
F80007F0000000
F80007F8000000
F8000FF8000000
F8001FFC000000
FC001FFE000020
7E007FFF0001E0
7F81FE7FE00FE0
3FFFFC3FFFFFE0
3FFFF81FFFFFE0
1FFFF007FFFFC0
07FFC001FFFE00
01FF00003FF000
ENDCHAR
STARTCHAR ccedilla
ENCODING 231
SWIDTH 549 0
DWIDTH 33 0
BBX 26 46 3 -12
BITMAP
000FF800
007FFE00
01FFFF80
03FFFFC0
07FFFFC0
0FF80FC0
1FC001C0
3F800040
3F000000
7E000000
7C000000
7C000000
FC000000
F8000000
F8000000
F8000000
F8000000
F8000000
F8000000
F8000000
F8000000
F8000000
FC000000
7C000000
7C000000
7E000000
3F000000
3F800040
1FC001C0
0FF80FC0
07FFFFC0
03FFFFC0
01FFFF80
007FFE00
000FF000
00007000
00007800
00003800
00003C00
00003C00
00003C00
00207C00
003FFC00
003FF800
003FF000
001FE000
ENDCHAR
STARTCHAR egrave
ENCODING 232
SWIDTH 615 0
DWIDTH 37 0
BBX 30 49 3 -1
BITMAP
03F00000
01F80000
00FC0000
007C0000
003E0000
001F0000
000F8000
000F8000
0007C000
0003E000
0001F000
00000000
00000000
00000000
000FF000
007FFE00
01FFFF00
03FFFFC0
07FFFFE0
0FF01FE0
1F8003F0
3F0001F8
3E0000F8
7C0000F8
7C00007C
7800007C
F800007C
FFFFFFFC
FFFFFFFC
FFFFFFFC
FFFFFFFC
FFFFFFFC
F8000000
F8000000
F8000000
FC000000
FC000000
7C000000
7E000000
7E000000
3F000000
3F800008
1FC00038
0FF803F8
07FFFFF8
03FFFFF8
01FFFFF0
007FFF80
000FFC00
ENDCHAR
STARTCHAR eacute
ENCODING 233
SWIDTH 615 0
DWIDTH 37 0
BBX 30 49 3 -1
BITMAP
00000FC0
00001F80
00003F00
00003E00
00007C00
0000F800
0001F000
0001F000
0003E000
0007C000
000F8000
00000000
00000000
00000000
000FF000
007FFE00
01FFFF00
03FFFFC0
07FFFFE0
0FF01FE0
1F8003F0
3F0001F8
3E0000F8
7C0000F8
7C00007C
7800007C
F800007C
FFFFFFFC
FFFFFFFC
FFFFFFFC
FFFFFFFC
FFFFFFFC
F8000000
F8000000
F8000000
FC000000
FC000000
7C000000
7E000000
7E000000
3F000000
3F800008
1FC00038
0FF803F8
07FFFFF8
03FFFFF8
01FFFFF0
007FFF80
000FFC00
ENDCHAR
STARTCHAR ecircumflex
ENCODING 234
SWIDTH 615 0
DWIDTH 37 0
BBX 30 49 3 -1
BITMAP
0003E000
0007F000
0007F000
000FF800
001F7C00
001E3C00
003E3E00
007C1F00
00780F00
00F00780
01F007C0
00000000
00000000
00000000
000FF000
007FFE00
01FFFF00
03FFFFC0
07FFFFE0
0FF01FE0
1F8003F0
3F0001F8
3E0000F8
7C0000F8
7C00007C
7800007C
F800007C
FFFFFFFC
FFFFFFFC
FFFFFFFC
FFFFFFFC
FFFFFFFC
F8000000
F8000000
F8000000
FC000000
FC000000
7C000000
7E000000
7E000000
3F000000
3F800008
1FC00038
0FF803F8
07FFFFF8
03FFFFF8
01FFFFF0
007FFF80
000FFC00
ENDCHAR
STARTCHAR edieresis
ENCODING 235
SWIDTH 615 0
DWIDTH 37 0
BBX 30 46 3 -1
BITMAP
01F81F80
01F81F80
01F81F80
01F81F80
01F81F80
01F81F80
00000000
00000000
00000000
00000000
00000000
000FF000
007FFE00
01FFFF00
03FFFFC0
07FFFFE0
0FF01FE0
1F8003F0
3F0001F8
3E0000F8
7C0000F8
7C00007C
7800007C
F800007C
FFFFFFFC
FFFFFFFC
FFFFFFFC
FFFFFFFC
FFFFFFFC
F8000000
F8000000
F8000000
FC000000
FC000000
7C000000
7E000000
7E000000
3F000000
3F800008
1FC00038
0FF803F8
07FFFFF8
03FFFFF8
01FFFFF0
007FFF80
000FFC00
ENDCHAR
STARTCHAR igrave
ENCODING 236
SWIDTH 277 0
DWIDTH 17 0
BBX 14 48 -2 0
BITMAP
FC00
7E00
3F00
1F00
0F80
07C0
03E0
03E0
01F0
00F8
007C
0000
0000
0000
0000
01F0
01F0
01F0
01F0
01F0
01F0
01F0
01F0
01F0
01F0
01F0
01F0
01F0
01F0
01F0
01F0
01F0
01F0
01F0
01F0
01F0
01F0
01F0
01F0
01F0
01F0
01F0
01F0
01F0
01F0
01F0
01F0
01F0
ENDCHAR
STARTCHAR iacute
ENCODING 237
SWIDTH 277 0
DWIDTH 17 0
BBX 14 48 4 0
BITMAP
00FC
01F8
03F0
03E0
07C0
0F80
1F00
1F00
3E00
7C00
F800
0000
0000
0000
0000
7C00
7C00
7C00
7C00
7C00
7C00
7C00
7C00
7C00
7C00
7C00
7C00
7C00
7C00
7C00
7C00
7C00
7C00
7C00
7C00
7C00
7C00
7C00
7C00
7C00
7C00
7C00
7C00
7C00
7C00
7C00
7C00
7C00
ENDCHAR
STARTCHAR icircumflex
ENCODING 238
SWIDTH 277 0
DWIDTH 17 0
BBX 19 48 -1 0
BITMAP
01F000
03F800
03F800
07FC00
0FBE00
0F1E00
1F1F00
3E0F80
3C0780
7803C0
F803E0
000000
000000
000000
000000
03E000
03E000
03E000
03E000
03E000
03E000
03E000
03E000
03E000
03E000
03E000
03E000
03E000
03E000
03E000
03E000
03E000
03E000
03E000
03E000
03E000
03E000
03E000
03E000
03E000
03E000
03E000
03E000
03E000
03E000
03E000
03E000
03E000
ENDCHAR
STARTCHAR idieresis
ENCODING 239
SWIDTH 277 0
DWIDTH 17 0
BBX 18 45 -1 0
BITMAP
FC0FC0
FC0FC0
FC0FC0
FC0FC0
FC0FC0
FC0FC0
000000
000000
000000
000000
000000
000000
03E000
03E000
03E000
03E000
03E000
03E000
03E000
03E000
03E000
03E000
03E000
03E000
03E000
03E000
03E000
03E000
03E000
03E000
03E000
03E000
03E000
03E000
03E000
03E000
03E000
03E000
03E000
03E000
03E000
03E000
03E000
03E000
03E000
ENDCHAR
STARTCHAR eth
ENCODING 240
SWIDTH 611 0
DWIDTH 37 0
BBX 30 47 3 -1
BITMAP
03F00000
03F80060
01FC03E0
00FE1FE0
007F7FC0
003FFE00
003FF000
01FFE000
0FFFE000
1FE3F000
1F01F800
1801FC00
0000FE00
00007F00
001FFF80
00FFFF80
03FFFFC0
07FFFFE0
0FFFFFE0
1FF00FF0
1FC003F0
3F0001F8
3E0001F8
7E0000F8
7C0000F8
7C0000FC
FC00007C
F800007C
F800007C
F800007C
F800007C
F800007C
F800007C
F800007C
F800007C
7C0000F8
7C0000F8
7E0001F8
3E0001F0
3F0003F0
1FC00FE0
1FF03FE0
0FFFFFC0
07FFFF80
03FFFF00
00FFFC00
001FE000
ENDCHAR
STARTCHAR ntilde
ENCODING 241
SWIDTH 633 0
DWIDTH 38 0
BBX 27 47 5 0
BITMAP
01F01E00
03F81E00
07FC1E00
07FE1E00
079F3C00
0F0FFC00
0F07FC00
0F03F800
0F01E000
00000000
00000000
00000000
00000000
000FE000
F83FFC00
F8FFFE00
F9FFFF00
FBFFFF80
FFE03F80
FF801FC0
FF000FC0
FE0007C0
FC0007E0
FC0003E0
F80003E0
F80003E0
F80003E0
F80003E0
F80003E0
F80003E0
F80003E0
F80003E0
F80003E0
F80003E0
F80003E0
F80003E0
F80003E0
F80003E0
F80003E0
F80003E0
F80003E0
F80003E0
F80003E0
F80003E0
F80003E0
F80003E0
F80003E0
ENDCHAR
STARTCHAR ograve
ENCODING 242
SWIDTH 611 0
DWIDTH 37 0
BBX 30 49 3 -1
BITMAP
07E00000
03F00000
01F80000
00F80000
007C0000
003E0000
001F0000
001F0000
000F8000
0007C000
0003E000
00000000
00000000
00000000
001FE000
00FFFC00
03FFFF00
07FFFF80
0FFFFFC0
1FF03FE0
1FC00FE0
3F0007F0
3F0003F0
7E0001F8
7C0000F8
7C0000F8
FC0000FC
F800007C
F800007C
F800007C
F800007C
F800007C
F800007C
F800007C
F800007C
F800007C
FC0000FC
7C0000F8
7C0000F8
7E0001F8
3F0003F0
3F0003F0
1FC00FE0
1FF03FE0
0FFFFFC0
07FFFF80
03FFFF00
00FFFC00
001FE000
ENDCHAR
STARTCHAR oacute
ENCODING 243
SWIDTH 611 0
DWIDTH 37 0
BBX 30 49 3 -1
BITMAP
00001F80
00003F00
00007E00
00007C00
0000F800
0001F000
0003E000
0003E000
0007C000
000F8000
001F0000
00000000
00000000
00000000
001FE000
00FFFC00
03FFFF00
07FFFF80
0FFFFFC0
1FF03FE0
1FC00FE0
3F0007F0
3F0003F0
7E0001F8
7C0000F8
7C0000F8
FC0000FC
F800007C
F800007C
F800007C
F800007C
F800007C
F800007C
F800007C
F800007C
F800007C
FC0000FC
7C0000F8
7C0000F8
7E0001F8
3F0003F0
3F0003F0
1FC00FE0
1FF03FE0
0FFFFFC0
07FFFF80
03FFFF00
00FFFC00
001FE000
ENDCHAR
STARTCHAR ocircumflex
ENCODING 244
SWIDTH 611 0
DWIDTH 37 0
BBX 30 49 3 -1
BITMAP
0007C000
000FE000
000FE000
001FF000
003EF800
003C7800
007C7C00
00F83E00
00F01E00
01E00F00
03E00F80
00000000
00000000
00000000
001FE000
00FFFC00
03FFFF00
07FFFF80
0FFFFFC0
1FF03FE0
1FC00FE0
3F0007F0
3F0003F0
7E0001F8
7C0000F8
7C0000F8
FC0000FC
F800007C
F800007C
F800007C
F800007C
F800007C
F800007C
F800007C
F800007C
F800007C
FC0000FC
7C0000F8
7C0000F8
7E0001F8
3F0003F0
3F0003F0
1FC00FE0
1FF03FE0
0FFFFFC0
07FFFF80
03FFFF00
00FFFC00
001FE000
ENDCHAR
STARTCHAR otilde
ENCODING 245
SWIDTH 611 0
DWIDTH 37 0
BBX 30 48 3 -1
BITMAP
00F80F00
01FC0F00
03FE0F00
03FF0F00
03CF9E00
0787FE00
0783FE00
0781FC00
0780F000
00000000
00000000
00000000
00000000
001FE000
00FFFC00
03FFFF00
07FFFF80
0FFFFFC0
1FF03FE0
1FC00FE0
3F0007F0
3F0003F0
7E0001F8
7C0000F8
7C0000F8
FC0000FC
F800007C
F800007C
F800007C
F800007C
F800007C
F800007C
F800007C
F800007C
F800007C
FC0000FC
7C0000F8
7C0000F8
7E0001F8
3F0003F0
3F0003F0
1FC00FE0
1FF03FE0
0FFFFFC0
07FFFF80
03FFFF00
00FFFC00
001FE000
ENDCHAR
STARTCHAR odieresis
ENCODING 246
SWIDTH 611 0
DWIDTH 37 0
BBX 30 46 3 -1
BITMAP
03F03F00
03F03F00
03F03F00
03F03F00
03F03F00
03F03F00
00000000
00000000
00000000
00000000
00000000
001FE000
00FFFC00
03FFFF00
07FFFF80
0FFFFFC0
1FF03FE0
1FC00FE0
3F0007F0
3F0003F0
7E0001F8
7C0000F8
7C0000F8
FC0000FC
F800007C
F800007C
F800007C
F800007C
F800007C
F800007C
F800007C
F800007C
F800007C
FC0000FC
7C0000F8
7C0000F8
7E0001F8
3F0003F0
3F0003F0
1FC00FE0
1FF03FE0
0FFFFFC0
07FFFF80
03FFFF00
00FFFC00
001FE000
ENDCHAR
STARTCHAR divide
ENCODING 247
SWIDTH 837 0
DWIDTH 50 0
BBX 37 29 6 4
BITMAP
0001FC0000
0001FC0000
0001FC0000
0001FC0000
0001FC0000
0001FC0000
0001FC0000
0000000000
0000000000
0000000000
0000000000
0000000000
FFFFFFFFF8
FFFFFFFFF8
FFFFFFFFF8
FFFFFFFFF8
FFFFFFFFF8
0000000000
0000000000
0000000000
0000000000
0000000000
0001FC0000
0001FC0000
0001FC0000
0001FC0000
0001FC0000
0001FC0000
0001FC0000
ENDCHAR
STARTCHAR oslash
ENCODING 248
SWIDTH 611 0
DWIDTH 37 0
BBX 32 39 2 -3
BITMAP
00000004
00000006
000FF80F
007FFE1E
01FFFF9E
03FFFFFC
07FFFFF8
0FF81FF8
0FE007F0
1F8003F8
1F8007F8
3F0007FC
3E000FFC
3E001F7C
7E003E7E
7C007C3E
7C00F83E
7C01F03E
7C03E03E
7C07E03E
7C07C03E
7C0F803E
7C1F003E
7C3E003E
7C7C007E
3EF8007C
3FF0007C
3FE000FC
1FC001F8
1FC001F8
0FE007F0
1FF81FF0
1FFFFFE0
3FFFFFC0
79FFFF00
787FFE00
F01FF000
60000000
20000000
ENDCHAR
STARTCHAR ugrave
ENCODING 249
SWIDTH 633 0
DWIDTH 38 0
BBX 27 49 5 -1
BITMAP
0FC00000
07E00000
03F00000
01F00000
00F80000
007C0000
003E0000
003E0000
001F0000
000F8000
0007C000
00000000
00000000
00000000
00000000
F80003E0
F80003E0
F80003E0
F80003E0
F80003E0
F80003E0
F80003E0
F80003E0
F80003E0
F80003E0
F80003E0
F80003E0
F80003E0
F80003E0
F80003E0
F80003E0
F80003E0
F80003E0
F80003E0
F80003E0
F80003E0
F80003E0
F80007E0
F80007E0
FC0007E0
7C000FE0
7E001FE0
7F003FE0
3F80FFE0
3FFFFBE0
1FFFF3E0
0FFFE3E0
07FFC3E0
00FE0000
ENDCHAR
STARTCHAR uacute
ENCODING 250
SWIDTH 633 0
DWIDTH 38 0
BBX 27 49 5 -1
BITMAP
00003F00
00007E00
0000FC00
0000F800
0001F000
0003E000
0007C000
0007C000
000F8000
001F0000
003E0000
00000000
00000000
00000000
00000000
F80003E0
F80003E0
F80003E0
F80003E0
F80003E0
F80003E0
F80003E0
F80003E0
F80003E0
F80003E0
F80003E0
F80003E0
F80003E0
F80003E0
F80003E0
F80003E0
F80003E0
F80003E0
F80003E0
F80003E0
F80003E0
F80003E0
F80007E0
F80007E0
FC0007E0
7C000FE0
7E001FE0
7F003FE0
3F80FFE0
3FFFFBE0
1FFFF3E0
0FFFE3E0
07FFC3E0
00FE0000
ENDCHAR
STARTCHAR ucircumflex
ENCODING 251
SWIDTH 633 0
DWIDTH 38 0
BBX 27 49 5 -1
BITMAP
000F8000
001FC000
001FC000
003FE000
007DF000
0078F000
00F8F800
01F07C00
01E03C00
03C01E00
07C01F00
00000000
00000000
00000000
00000000
F80003E0
F80003E0
F80003E0
F80003E0
F80003E0
F80003E0
F80003E0
F80003E0
F80003E0
F80003E0
F80003E0
F80003E0
F80003E0
F80003E0
F80003E0
F80003E0
F80003E0
F80003E0
F80003E0
F80003E0
F80003E0
F80003E0
F80007E0
F80007E0
FC0007E0
7C000FE0
7E001FE0
7F003FE0
3F80FFE0
3FFFFBE0
1FFFF3E0
0FFFE3E0
07FFC3E0
00FE0000
ENDCHAR
STARTCHAR udieresis
ENCODING 252
SWIDTH 633 0
DWIDTH 38 0
BBX 27 46 5 -1
BITMAP
07E07E00
07E07E00
07E07E00
07E07E00
07E07E00
07E07E00
00000000
00000000
00000000
00000000
00000000
00000000
F80003E0
F80003E0
F80003E0
F80003E0
F80003E0
F80003E0
F80003E0
F80003E0
F80003E0
F80003E0
F80003E0
F80003E0
F80003E0
F80003E0
F80003E0
F80003E0
F80003E0
F80003E0
F80003E0
F80003E0
F80003E0
F80003E0
F80007E0
F80007E0
FC0007E0
7C000FE0
7E001FE0
7F003FE0
3F80FFE0
3FFFFBE0
1FFFF3E0
0FFFE3E0
07FFC3E0
00FE0000
ENDCHAR
STARTCHAR yacute
ENCODING 253
SWIDTH 591 0
DWIDTH 36 0
BBX 32 60 2 -12
BITMAP
00000FC0
00001F80
00003F00
00003E00
00007C00
0000F800
0001F000
0001F000
0003E000
0007C000
000F8000
00000000
00000000
00000000
00000000
FC00003F
7C00003E
7C00003E
7E00007E
3E00007C
3F0000FC
1F0000F8
1F8000F8
0F8001F8
0F8001F0
0FC003F0
07C003E0
07E007E0
03E007C0
03E007C0
03F00FC0
01F00F80
01F81F80
00F81F00
00F81F00
00FC3F00
007C3E00
007E7E00
003E7C00
003F7C00
001FFC00
001FF800
001FF800
000FF000
000FF000
0007F000
0007E000
0007E000
0007C000
000FC000
000F8000
000F8000
001F8000
003F0000
007F0000
1FFE0000
1FFE0000
1FFC0000
1FF80000
1FE00000
ENDCHAR
STARTCHAR thorn
ENCODING 254
SWIDTH 634 0
DWIDTH 38 0
BBX 29 58 5 -12
BITMAP
F8000000
F8000000
F8000000
F8000000
F8000000
F8000000
F8000000
F8000000
F8000000
F8000000
F8000000
F8000000
F80FE000
F87FFC00
F8FFFE00
F9FFFF00
FBFFFF80
FFE03FC0
FF800FC0
FF0007E0
FE0003E0
FE0003F0
FC0001F0
FC0001F0
FC0001F8
F80000F8
F80000F8
F80000F8
F80000F8
F80000F8
F80000F8
F80000F8
F80000F8
F80000F8
FC0001F8
FC0001F0
FC0001F0
FE0003F0
FE0003E0
FF0007E0
FF800FC0
FFE03FC0
FBFFFF80
F9FFFF00
F8FFFE00
F87FF800
F80FE000
F8000000
F8000000
F8000000
F8000000
F8000000
F8000000
F8000000
F8000000
F8000000
F8000000
F8000000
ENDCHAR
STARTCHAR ydieresis
ENCODING 255
SWIDTH 591 0
DWIDTH 36 0
BBX 32 57 2 -12
BITMAP
01F81F80
01F81F80
01F81F80
01F81F80
01F81F80
01F81F80
00000000
00000000
00000000
00000000
00000000
00000000
FC00003F
7C00003E
7C00003E
7E00007E
3E00007C
3F0000FC
1F0000F8
1F8000F8
0F8001F8
0F8001F0
0FC003F0
07C003E0
07E007E0
03E007C0
03E007C0
03F00FC0
01F00F80
01F81F80
00F81F00
00F81F00
00FC3F00
007C3E00
007E7E00
003E7C00
003F7C00
001FFC00
001FF800
001FF800
000FF000
000FF000
0007F000
0007E000
0007E000
0007C000
000FC000
000F8000
000F8000
001F8000
003F0000
007F0000
1FFE0000
1FFE0000
1FFC0000
1FF80000
1FE00000
ENDCHAR
STARTCHAR .notdef
ENCODING -1
SWIDTH 600 0
DWIDTH 36 0
BBX 30 53 3 -11
BITMAP
FFFFFFFC
FFFFFFFC
FFFFFFFC
E000001C
E000001C
E000001C
E000001C
E000001C
E000001C
E000001C
E000001C
E000001C
E000001C
E000001C
E000001C
E000001C
E000001C
E000001C
E000001C
E000001C
E000001C
E000001C
E000001C
E000001C
E000001C
E000001C
E000001C
E000001C
E000001C
E000001C
E000001C
E000001C
E000001C
E000001C
E000001C
E000001C
E000001C
E000001C
E000001C
E000001C
E000001C
E000001C
E000001C
E000001C
E000001C
E000001C
E000001C
E000001C
E000001C
E000001C
FFFFFFFC
FFFFFFFC
FFFFFFFC
ENDCHAR
STARTCHAR .null
ENCODING -1
SWIDTH 0 0
DWIDTH 0 0
BBX 1 1 0 0
BITMAP
00
ENDCHAR
STARTCHAR nonmarkingreturn
ENCODING -1
SWIDTH 317 0
DWIDTH 19 0
BBX 1 1 0 0
BITMAP
00
ENDCHAR
STARTCHAR dagger
ENCODING -1
SWIDTH 500 0
DWIDTH 30 0
BBX 27 50 1 -6
BITMAP
001F0000
001F0000
001F0000
001F0000
001F0000
001F0000
001F0000
001F0000
001F0000
001F0000
001F0000
001F0000
FFFFFFE0
FFFFFFE0
FFFFFFE0
FFFFFFE0
FFFFFFE0
001F0000
001F0000
001F0000
001F0000
001F0000
001F0000
001F0000
001F0000
001F0000
001F0000
001F0000
001F0000
001F0000
001F0000
001F0000
001F0000
001F0000
001F0000
001F0000
001F0000
001F0000
001F0000
001F0000
001F0000
001F0000
001F0000
001F0000
001F0000
001F0000
001F0000
001F0000
001F0000
001F0000
ENDCHAR
STARTCHAR bullet
ENCODING -1
SWIDTH 589 0
DWIDTH 35 0
BBX 17 17 9 14
BITMAP
03F000
0FF800
3FFE00
3FFE00
7FFF00
FFFF00
FFFF80
FFFF80
FFFF80
FFFF80
FFFF80
FFFF00
7FFF00
3FFE00
3FFE00
0FF800
03F000
ENDCHAR
STARTCHAR trademark
ENCODING -1
SWIDTH 1000 0
DWIDTH 60 0
BBX 38 17 9 27
BITMAP
FFFE3E007C
FFFE3F00FC
FFFE3F81FC
03803F81FC
03803BC3DC
038039E39C
038039E79C
038038FF1C
0380387E1C
0380383E1C
0380383C1C
038038181C
038038001C
038038001C
038038001C
038038001C
038038001C
ENDCHAR
STARTCHAR notequal
ENCODING -1
SWIDTH 837 0
DWIDTH 50 0
BBX 38 35 6 1
BITMAP
0000000200
0000000700
0000000FC0
0000000FC0
0000001F80
0000003F00
0000007E00
000000FC00
000001F800
FFFFFFFFFC
FFFFFFFFFC
FFFFFFFFFC
FFFFFFFFFC
FFFFFFFFFC
00003F8000
00003F0000
00007E0000
0000FC0000
0001F80000
0003F00000
0007F00000
FFFFFFFFFC
FFFFFFFFFC
FFFFFFFFFC
FFFFFFFFFC
FFFFFFFFFC
00FE000000
00FC000000
01F8000000
03F0000000
07E0000000
0FC0000000
0FC0000000
0780000000
0100000000
ENDCHAR
STARTCHAR infinity
ENCODING -1
SWIDTH 833 0
DWIDTH 50 0
BBX 37 23 6 6
BITMAP
03E0007E00
0FF801FF80
1FFC03FFC0
3FFE07FFE0
3FFF0FFFE0
7C0F9FC0F0
70079F8070
E001FF0030
E000FE0038
C000FC0018
C0007C0018
C000F80018
C000F80018
C001F00018
C003F80038
E003FC0038
6007DE0070
700FCF00F0
3C3F87E3E0
1FFF07FFE0
1FFE03FFC0
07FC00FF80
03F0003E00
ENDCHAR
STARTCHAR lessequal
ENCODING -1
SWIDTH 837 0
DWIDTH 50 0
BBX 38 35 6 0
BITMAP
000000000C
000000007C
00000007FC
0000003FFC
000003FFFC
00001FFFF8
0001FFFFC0
000FFFFC00
007FFFE000
07FFFE0000
3FFFF00000
FFFF000000
FFF8000000
FF80000000
FFF8000000
FFFF000000
3FFFF00000
07FFFE0000
007FFFE000
000FFFFC00
0001FFFFC0
00001FFFF8
000003FFFC
0000003FFC
00000007FC
000000007C
000000000C
0000000000
0000000000
0000000000
FFFFFFFFFC
FFFFFFFFFC
FFFFFFFFFC
FFFFFFFFFC
FFFFFFFFFC
ENDCHAR
STARTCHAR greaterequal
ENCODING -1
SWIDTH 837 0
DWIDTH 50 0
BBX 38 35 6 0
BITMAP
C000000000
F800000000
FF80000000
FFF0000000
FFFF000000
7FFFE00000
0FFFFE0000
00FFFFC000
001FFFF800
0001FFFF80
00003FFFF0
000003FFFC
0000007FFC
00000007FC
0000007FFC
000003FFFC
00003FFFF0
0001FFFF80
001FFFF800
00FFFFC000
0FFFFE0000
7FFFE00000
FFFF000000
FFF0000000
FF80000000
F800000000
C000000000
0000000000
0000000000
0000000000
FFFFFFFFFC
FFFFFFFFFC
FFFFFFFFFC
FFFFFFFFFC
FFFFFFFFFC
ENDCHAR
STARTCHAR partialdiff
ENCODING -1
SWIDTH 517 0
DWIDTH 31 0
BBX 25 39 3 0
BITMAP
003F8000
00FFE000
01FFF000
03FC3800
03F01C00
03E01C00
00800E00
00000E00
00000F00
00000F00
00000F00
00000F80
00000F80
00000F80
00000F80
00FE0F80
03FF8F80
0FE1CF80
1F80CF80
1F007F80
3E003F80
7E003F80
7C003F80
7C003F00
FC003F00
F8003F00
F8003F00
F8003E00
F8003E00
F8007C00
F8007C00
F8007800
7800F800
7800F000
3C01E000
1E03C000
0F078000
07FF0000
01FC0000
ENDCHAR
STARTCHAR summation
ENCODING -1
SWIDTH 673 0
DWIDTH 40 0
BBX 39 55 1 -12
BITMAP
7FFFFFFFFC
7FFFFFFFFC
7FFFFFFFFC
7FFFFFFFFC
7FFFFFFFFC
7FFFFFFFFC
3FC0000000
1FE0000000
0FF0000000
07F8000000
03FC000000
01FE000000
00FF000000
007F800000
003FC00000
001FE00000
000FF00000
0007F80000
0003FC0000
0003FE0000
0001FF0000
0000FF8000
00007FC000
00003FE000
00001FF000
00000FF800
000007FC00
000007F800
00000FF000
00001FE000
00003FC000
00007F8000
0000FF0000
0000FE0000
0001FE0000
0003FC0000
0007F80000
000FF00000
001FE00000
003FC00000
007F800000
00FF000000
01FE000000
03FC000000
03F8000000
07F0000000
0FE0000000
1FE0000000
3FC0000000
7FFFFFFFFE
FFFFFFFFFE
FFFFFFFFFE
FFFFFFFFFE
FFFFFFFFFE
FFFFFFFFFE
ENDCHAR
STARTCHAR product
ENCODING -1
SWIDTH 756 0
DWIDTH 45 0
BBX 36 55 5 -11
BITMAP
FFFFFFFFF0
FFFFFFFFF0
FFFFFFFFF0
FFFFFFFFF0
FFFFFFFFF0
F8000001F0
F8000001F0
F8000001F0
F8000001F0
F8000001F0
F8000001F0
F8000001F0
F8000001F0
F8000001F0
F8000001F0
F8000001F0
F8000001F0
F8000001F0
F8000001F0
F8000001F0
F8000001F0
F8000001F0
F8000001F0
F8000001F0
F8000001F0
F8000001F0
F8000001F0
F8000001F0
F8000001F0
F8000001F0
F8000001F0
F8000001F0
F8000001F0
F8000001F0
F8000001F0
F8000001F0
F8000001F0
F8000001F0
F8000001F0
F8000001F0
F8000001F0
F8000001F0
F8000001F0
F8000001F0
F8000001F0
F8000001F0
F8000001F0
F8000001F0
F8000001F0
F8000001F0
F8000001F0
F8000001F0
F8000001F0
F8000001F0
F8000001F0
ENDCHAR
STARTCHAR pi
ENCODING -1
SWIDTH 588 0
DWIDTH 35 0
BBX 36 31 -1 0
BITMAP
03FFFFFFF0
1FFFFFFFF0
3FFFFFFFF0
3FFFFFFFE0
7FFFFFFFE0
7E3E007C00
FC7E00FC00
F87E00F800
F87C00F800
007C00F800
007C00F800
00FC01F000
00FC01F000
00F801F000
00F801F000
01F803E000
01F803E000
01F003E000
01F003E000
01F003E000
03F007C000
03F007C000
03E007C000
03E007C000
07E007C000
07E007E000
07C007FF00
07C007FE00
0FC003FE00
0FC001FE00
0FC000FE00
ENDCHAR
STARTCHAR integral
ENCODING -1
SWIDTH 520 0
DWIDTH 31 0
BBX 27 56 2 -10
BITMAP
00001F00
00007FC0
0000FFE0
0001EFE0
0001CFE0
0003CFE0
000387E0
000383C0
00078000
00078000
00078000
000F8000
000F8000
000F8000
000F0000
000F0000
000F0000
000F0000
001F0000
001F0000
001F0000
001F0000
001F0000
001F0000
001F0000
001F0000
001F0000
001F0000
001F0000
001F0000
001F0000
001F0000
001F0000
001F0000
001F0000
001F0000
001F0000
001F0000
001E0000
001E0000
001E0000
001E0000
003E0000
003E0000
003E0000
003C0000
003C0000
003C0000
383C0000
FC380000
FE780000
FE700000
FEF00000
FFE00000
7FC00000
3F000000
ENDCHAR
STARTCHAR Omega
ENCODING -1
SWIDTH 764 0
DWIDTH 46 0
BBX 42 45 2 0
BITMAP
0000FFC00000
0007FFF80000
001FFFFE0000
007FFFFF8000
00FFFFFFC000
01FF807FE000
03FC000FF000
07F00003F800
0FE00001F800
0FC00000FC00
1F8000007E00
1F8000003E00
3F0000003F00
3E0000001F00
3E0000001F00
3E0000001F00
7C0000000F80
7C0000000F80
7C0000000F80
7C0000000F80
7C0000000F80
7C0000000F80
7C0000000F80
7C0000000F80
7C0000000F80
7C0000000F80
7E0000001F80
3E0000001F00
3E0000001F00
3F0000003F00
1F0000003E00
1F8000007E00
1F8000007E00
0FC00000FC00
07E00001F800
07F00003F800
03F80007F000
01FC000FE000
00FE001FC000
007F807F8000
FFFFC0FFFFC0
FFFFC0FFFFC0
FFFFC0FFFFC0
FFFFC0FFFFC0
FFFFC0FFFFC0
ENDCHAR
STARTCHAR radical
ENCODING -1
SWIDTH 637 0
DWIDTH 38 0
BBX 36 50 2 -1
BITMAP
00000003F0
00000003F0
00000003F0
0000000700
0000000700
0000000700
0000000E00
0000000E00
0000001E00
0000001C00
0000001C00
0000003C00
0000003800
0000003800
0000007000
0000007000
0000007000
000000E000
000000E000
000001E000
000001C000
078001C000
3F8003C000
FF80038000
FFC0038000
07C0070000
07C0070000
03E0070000
03E00E0000
03E00E0000
01F01E0000
01F01C0000
01F81C0000
00F83C0000
00F8380000
00FC380000
007C700000
007C700000
007E700000
003EE00000
003EE00000
001FE00000
001FC00000
001FC00000
000FC00000
000F800000
000F800000
0007000000
0007000000
0007000000
ENDCHAR
STARTCHAR florin
ENCODING -1
SWIDTH 636 0
DWIDTH 38 0
BBX 37 58 1 -12
BITMAP
0000000FE0
0000007FF8
000000FFF8
000001FFF8
000003FFF8
000003FC08
000007F000
000007E000
00000FC000
00000FC000
00000F8000
00000F8000
00001F8000
00001F0000
00001F0000
00001F0000
00001F0000
00001F0000
00003F0000
00003E0000
00003E0000
003FFFFF00
003FFFFF00
003FFFFF00
003FFFFF00
003FFFFF00
00007C0000
00007C0000
0000FC0000
0000FC0000
0000F80000
0000F80000
0000F80000
0001F80000
0001F00000
0001F00000
0001F00000
0001F00000
0003F00000
0003E00000
0003E00000
0003E00000
0007E00000
0007C00000
0007C00000
0007C00000
0007C00000
000F800000
000F800000
001F800000
001F000000
003F000000
C07F000000
FFFE000000
FFFC000000
FFF8000000
FFF0000000
3FC0000000
ENDCHAR
STARTCHAR approxequal
ENCODING -1
SWIDTH 837 0
DWIDTH 50 0
BBX 38 21 6 9
BITMAP
01FE00000C
07FFC0001C
1FFFF8007C
7FFFFF01FC
FFFFFFFFFC
FE03FFFFF8
F8007FFFE0
E0000FFF80
C00001FE00
0000000000
0000000000
0000000000
01FE00000C
07FFC0001C
1FFFF8007C
7FFFFF01FC
FFFFFFFFFC
FE03FFFFF8
F8007FFFE0
E0000FFF80
C00001FE00
ENDCHAR
STARTCHAR Delta
ENCODING -1
SWIDTH 668 0
DWIDTH 40 0
BBX 40 43 0 0
BITMAP
0000FE0000
0000FF0000
0000FF0000
0001FF8000
0001FF8000
0001FF8000
0003FFC000
0003EFC000
0007E7E000
0007E7E000
0007C3E000
000FC3F000
000F83F000
001F81F000
001F81F800
001F01F800
003F00FC00
003F00FC00
007E007C00
007E007E00
007C007E00
00FC003F00
00FC003F00
00F8001F00
01F8001F80
01F8001F80
03F0000FC0
03F0000FC0
03E0000FC0
07E00007E0
07E00007E0
0FC00003F0
0FC00003F0
0F800003F0
1F800001F8
1F800001F8
3F000001F8
3F000000FC
3FFFFFFFFC
7FFFFFFFFE
7FFFFFFFFE
7FFFFFFFFE
FFFFFFFFFF
ENDCHAR
STARTCHAR ellipsis
ENCODING -1
SWIDTH 1000 0
DWIDTH 60 0
BBX 45 7 7 0
BITMAP
F8000F8000F8
F8000F8000F8
F8000F8000F8
F8000F8000F8
F8000F8000F8
F8000F8000F8
F8000F8000F8
ENDCHAR
STARTCHAR OE
ENCODING -1
SWIDTH 1069 0
DWIDTH 64 0
BBX 57 44 3 0
BITMAP
00001FFFFFFFFF00
0003FFFFFFFFFF00
000FFFFFFFFFFF00
003FFFFFFFFFFF00
00FFFFFFFFFFFF00
01FFE007C0000000
03FE0007C0000000
07F80007C0000000
0FE00007C0000000
1FC00007C0000000
1F800007C0000000
3F000007C0000000
3E000007C0000000
7E000007C0000000
7C000007C0000000
7C000007C0000000
FC000007C0000000
F8000007C0000000
F8000007FFFFFF00
F8000007FFFFFF00
F8000007FFFFFF00
F8000007FFFFFF00
F8000007FFFFFF00
F8000007C0000000
F8000007C0000000
F8000007C0000000
F8000007C0000000
FC000007C0000000
7C000007C0000000
7C000007C0000000
7E000007C0000000
3E000007C0000000
3F000007C0000000
1F800007C0000000
1FC00007C0000000
0FE00007C0000000
07F80007C0000000
03FE0007C0000000
01FFE007C0000000
00FFFFFFFFFFFF80
007FFFFFFFFFFF80
000FFFFFFFFFFF80
0003FFFFFFFFFF80
00001FFFFFFFFF80
ENDCHAR
STARTCHAR oe
ENCODING -1
SWIDTH 1022 0
DWIDTH 61 0
BBX 55 35 3 -1
BITMAP
001FF0000FF800
00FFFC007FFF00
03FFFF01FFFF80
07FFFF83FFFFE0
0FFFFFC7FFFFF0
1FF03FEFF80FF0
1FC00FFFC001F8
3F0007FF8000FC
3F0003FF00007C
7E0001FE00007C
7C0000FE00003E
7C0000FC00003E
FC0000FC00003E
F800007FFFFFFE
F800007FFFFFFE
F800007FFFFFFE
F800007FFFFFFE
F800007FFFFFFE
F800007C000000
F800007C000000
F800007C000000
F800007E000000
FC0000FE000000
7C0000FE000000
7C0000FF000000
7E0001FF000000
3F0003FF800000
3F0003FFC00004
1FC00FFFE0001C
1FF03FEFFC01FC
0FFFFFC7FFFFFC
07FFFF83FFFFFC
03FFFF00FFFFF8
00FFFC003FFFC0
001FF00007FE00
ENDCHAR
STARTCHAR endash
ENCODING -1
SWIDTH 500 0
DWIDTH 30 0
BBX 30 5 0 14
BITMAP
FFFFFFFC
FFFFFFFC
FFFFFFFC
FFFFFFFC
FFFFFFFC
ENDCHAR
STARTCHAR emdash
ENCODING -1
SWIDTH 1000 0
DWIDTH 60 0
BBX 60 5 0 14
BITMAP
FFFFFFFFFFFFFFF0
FFFFFFFFFFFFFFF0
FFFFFFFFFFFFFFF0
FFFFFFFFFFFFFFF0
FFFFFFFFFFFFFFF0
ENDCHAR
STARTCHAR quotedblleft
ENCODING -1
SWIDTH 518 0
DWIDTH 31 0
BBX 18 14 5 30
BITMAP
1E03C0
3E07C0
3C0780
3C0780
7C0F80
7C0F80
7C0F80
780F00
F81F00
F81F00
F81F00
F81F00
F81F00
F81F00
ENDCHAR
STARTCHAR quotedblright
ENCODING -1
SWIDTH 518 0
DWIDTH 31 0
BBX 18 14 6 30
BITMAP
3E07C0
3E07C0
3E07C0
3E07C0
3E07C0
3E07C0
3C0780
7C0F80
7C0F80
780F00
780F00
780F00
F81F00
F01E00
ENDCHAR
STARTCHAR quoteleft
ENCODING -1
SWIDTH 317 0
DWIDTH 19 0
BBX 7 14 5 30
BITMAP
1E
3E
3C
3C
7C
7C
7C
78
F8
F8
F8
F8
F8
F8
ENDCHAR
STARTCHAR quoteright
ENCODING -1
SWIDTH 317 0
DWIDTH 19 0
BBX 8 14 6 30
BITMAP
3F
3F
3F
3F
3F
3F
3E
7E
7C
7C
78
78
F8
F0
ENDCHAR
STARTCHAR lozenge
ENCODING -1
SWIDTH 494 0
DWIDTH 30 0
BBX 29 62 0 -14
BITMAP
00020000
00020000
00070000
00070000
000F8000
000F8000
001FC000
001DC000
003DC000
0038E000
0038E000
00707000
00707000
00E03800
00E03800
01E03C00
01C01C00
03C01E00
03800E00
07800F00
07000700
0F000780
0E000380
1E0003C0
1C0001C0
1C0001C0
380000E0
380000E0
70000070
70000070
F0000038
F0000078
70000070
780000F0
380000E0
3C0001E0
1C0001C0
1C0001C0
0E000380
0E000380
0F000780
07000700
07800F00
03800E00
03C01E00
01C01C00
01E03C00
00E03800
00F07800
00707000
00707000
0038E000
0038E000
001DC000
001DC000
001FC000
000F8000
000F8000
00070000
00070000
00020000
00020000
ENDCHAR
STARTCHAR Ydieresis
ENCODING -1
SWIDTH 610 0
DWIDTH 37 0
BBX 37 55 -1 0
BITMAP
003F03F000
003F03F000
003F03F000
003F03F000
003F03F000
003F03F000
0000000000
0000000000
0000000000
0000000000
0000000000
FC000001F8
7E000003F0
3F000007E0
3F80000FE0
1F80000FC0
0FC0001F80
07E0003F80
07E0003F00
03F0007E00
01F800FC00
01F800FC00
00FC01F800
007E03F000
007E03F000
003F07E000
001F8FC000
001FDFC000
000FDF8000
0007FF0000
0003FE0000
0003FE0000
0001FC0000
0000F80000
0000F80000
0000F80000
0000F80000
0000F80000
0000F80000
0000F80000
0000F80000
0000F80000
0000F80000
0000F80000
0000F80000
0000F80000
0000F80000
0000F80000
0000F80000
0000F80000
0000F80000
0000F80000
0000F80000
0000F80000
0000F80000
ENDCHAR
STARTCHAR fraction
ENCODING -1
SWIDTH 166 0
DWIDTH 10 0
BBX 32 46 -11 -1
BITMAP
0000001F
0000003E
0000003E
0000007C
00000078
000000F8
000001F0
000001F0
000003E0
000003C0
000007C0
00000F80
00000F80
00001F00
00001E00
00003E00
00003C00
00007C00
0000F800
0000F000
0001F000
0001E000
0003E000
0007C000
00078000
000F8000
000F0000
001F0000
003E0000
003C0000
007C0000
00780000
00F80000
01F00000
01F00000
03E00000
03C00000
07C00000
0F800000
0F800000
1F000000
1E000000
3E000000
7C000000
7C000000
F8000000
ENDCHAR
STARTCHAR guilsinglleft
ENCODING -1
SWIDTH 399 0
DWIDTH 24 0
BBX 14 27 5 4
BITMAP
0004
000C
001C
003C
007C
00FC
01F8
07F0
0FC0
1F80
3F00
7E00
FC00
F800
FC00
7E00
3F00
1F80
0FC0
07F0
01F8
00FC
007C
003C
001C
000C
0004
ENDCHAR
STARTCHAR guilsinglright
ENCODING -1
SWIDTH 399 0
DWIDTH 24 0
BBX 14 27 6 4
BITMAP
8000
C000
E000
F000
F800
FC00
7E00
3F80
0FC0
07E0
03F0
01F8
00FC
007C
00FC
01F8
03F0
07E0
0FC0
3F80
7E00
FC00
F800
F000
E000
C000
8000
ENDCHAR
STARTCHAR fi
ENCODING -1
SWIDTH 629 0
DWIDTH 38 0
BBX 31 46 2 0
BITMAP
001FF03E
007FF03E
01FFF03E
01FFF03E
03FFF03E
03F0003E
07E0003E
07C00000
07C00000
07C00000
07C00000
07C00000
07C00000
FFFFFFFE
FFFFFFFE
FFFFFFFE
FFFFFFFE
FFFFFFFE
07C0003E
07C0003E
07C0003E
07C0003E
07C0003E
07C0003E
07C0003E
07C0003E
07C0003E
07C0003E
07C0003E
07C0003E
07C0003E
07C0003E
07C0003E
07C0003E
07C0003E
07C0003E
07C0003E
07C0003E
07C0003E
07C0003E
07C0003E
07C0003E
07C0003E
07C0003E
07C0003E
07C0003E
ENDCHAR
STARTCHAR fl
ENCODING -1
SWIDTH 629 0
DWIDTH 38 0
BBX 31 46 2 0
BITMAP
001FFFFE
007FFFFE
00FFFFFE
01FFFFFE
03FFFFFE
03F0003E
07E0003E
07C0003E
07C0003E
07C0003E
07C0003E
07C0003E
07C0003E
FFFFE03E
FFFFE03E
FFFFE03E
FFFFE03E
FFFFE03E
07C0003E
07C0003E
07C0003E
07C0003E
07C0003E
07C0003E
07C0003E
07C0003E
07C0003E
07C0003E
07C0003E
07C0003E
07C0003E
07C0003E
07C0003E
07C0003E
07C0003E
07C0003E
07C0003E
07C0003E
07C0003E
07C0003E
07C0003E
07C0003E
07C0003E
07C0003E
07C0003E
07C0003E
ENDCHAR
STARTCHAR daggerdbl
ENCODING -1
SWIDTH 500 0
DWIDTH 30 0
BBX 27 50 1 -6
BITMAP
001F0000
001F0000
001F0000
001F0000
001F0000
001F0000
001F0000
001F0000
001F0000
001F0000
001F0000
001F0000
FFFFFFE0
FFFFFFE0
FFFFFFE0
FFFFFFE0
FFFFFFE0
001F0000
001F0000
001F0000
001F0000
001F0000
001F0000
001F0000
001F0000
001F0000
001F0000
001F0000
001F0000
001F0000
001F0000
001F0000
001F0000
FFFFFFE0
FFFFFFE0
FFFFFFE0
FFFFFFE0
FFFFFFE0
001F0000
001F0000
001F0000
001F0000
001F0000
001F0000
001F0000
001F0000
001F0000
001F0000
001F0000
001F0000
ENDCHAR
STARTCHAR quotesinglbase
ENCODING -1
SWIDTH 317 0
DWIDTH 19 0
BBX 7 14 6 -7
BITMAP
3E
3E
3E
3E
3E
3E
3C
7C
7C
78
78
78
F8
F0
ENDCHAR
STARTCHAR quotedblbase
ENCODING -1
SWIDTH 518 0
DWIDTH 31 0
BBX 18 14 6 -7
BITMAP
3E07C0
3E07C0
3E07C0
3E07C0
3E07C0
3E07C0
3C0780
7C0F80
7C0F80
780F00
780F00
780F00
F81F00
F01E00
ENDCHAR
STARTCHAR perthousand
ENCODING -1
SWIDTH 1341 0
DWIDTH 81 0
BBX 73 46 3 -1
BITMAP
01F800000F8000000000
07FE00001F0000000000
1FFF80001E0000000000
3FFF80003E0000000000
3F0FC0003C0000000000
7E07E0007C0000000000
7C03E000F80000000000
7C03E000F00000000000
F801F001F00000000000
F801F001E00000000000
F801F003E00000000000
F801F007C00000000000
F801F007C00000000000
F801F00F800000000000
F801F00F000000000000
F801F01F000000000000
7C03E03E000000000000
7C03E03E000000000000
7E07E07C000000000000
3F0FC078000000000000
3FFFC0F8000000000000
1FFF80F0000000000000
07FE01F007E0000FC000
01F803E01FF8003FF000
000003C07FFE00FFFC00
000007C0FFFE01FFFC00
00000780FC3F01F87E00
00000F81F81F83F03F00
00001F01F00F83E01F00
00001F01F00F83E01F00
00003E03E007C7C00F80
00003C03E007C7C00F80
00007C03E007C7C00F80
0000F803E007C7C00F80
0000F803E007C7C00F80
0001F003E007C7C00F80
0001E003E007C7C00F80
0003E003E007C7C00F80
0003C001F00F83E01F00
0007C001F00F83E01F00
000F8001F81F83F03F00
000F0000FC3F01F87E00
001F0000FFFE01FFFC00
001E00007FFE00FFFC00
003E00001FF8003FF000
007C000007E0000FC000
ENDCHAR
STARTCHAR dotlessi
ENCODING -1
SWIDTH 277 0
DWIDTH 17 0
BBX 5 33 5 0
BITMAP
F8
F8
F8
F8
F8
F8
F8
F8
F8
F8
F8
F8
F8
F8
F8
F8
F8
F8
F8
F8
F8
F8
F8
F8
F8
F8
F8
F8
F8
F8
F8
F8
F8
ENDCHAR
STARTCHAR circumflex
ENCODING -1
SWIDTH 500 0
DWIDTH 30 0
BBX 19 11 6 37
BITMAP
01F000
03F800
03F800
07FC00
0FBE00
0F1E00
1F1F00
3E0F80
3C0780
7803C0
F803E0
ENDCHAR
STARTCHAR tilde
ENCODING -1
SWIDTH 500 0
DWIDTH 30 0
BBX 19 9 5 38
BITMAP
1F01E0
3F81E0
7FC1E0
7FE1E0
79F3C0
F0FFC0
F07FC0
F03F80
F01E00
ENDCHAR
STARTCHAR breve
ENCODING -1
SWIDTH 500 0
DWIDTH 30 0
BBX 18 8 6 40
BITMAP
F003C0
F003C0
F807C0
7C0F80
7FFF80
3FFF00
1FFE00
07F800
ENDCHAR
STARTCHAR dotaccent
ENCODING -1
SWIDTH 500 0
DWIDTH 30 0
BBX 6 6 12 39
BITMAP
FC
FC
FC
FC
FC
FC
ENDCHAR
STARTCHAR ring
ENCODING -1
SWIDTH 500 0
DWIDTH 30 0
BBX 16 16 7 37
BITMAP
07E0
1FF8
3FFC
7FFE
7C3E
F81F
F00F
F00F
F00F
F00F
F81F
7C3E
7FFE
3FFC
1FF8
07E0
ENDCHAR
STARTCHAR hungarumlaut
ENCODING -1
SWIDTH 500 0
DWIDTH 30 0
BBX 21 11 7 37
BITMAP
03E0F8
07C1F0
0783E0
0F83E0
1F07C0
1F0780
3E0F80
3C0F00
7C1F00
781E00
F83C00
ENDCHAR
STARTCHAR ogonek
ENCODING -1
SWIDTH 500 0
DWIDTH 30 0
BBX 11 12 10 -12
BITMAP
1C00
3800
7800
7000
F000
F000
F000
F820
FFE0
7FE0
7FE0
1FE0
ENDCHAR
STARTCHAR caron
ENCODING -1
SWIDTH 500 0
DWIDTH 30 0
BBX 19 11 6 37
BITMAP
F803E0
7803C0
3C0780
3E0F80
1F1F00
0F1E00
0FBE00
07FC00
03F800
03F800
01F000
ENDCHAR
STARTCHAR Lslash
ENCODING -1
SWIDTH 562 0
DWIDTH 34 0
BBX 34 44 -1 0
BITMAP
01F0000000
01F0000000
01F0000000
01F0000000
01F0000000
01F0000000
01F0000000
01F0000000
01F0000000
01F0000000
01F0000000
01F0000000
01F00C0000
01F01E0000
01F07F0000
01F0FE0000
01F3FC0000
01F7F00000
01FFE00000
01FF800000
01FF000000
01FC000000
01F8000000
07F0000000
0FF0000000
3FF0000000
7FF0000000
FFF0000000
79F0000000
31F0000000
01F0000000
01F0000000
01F0000000
01F0000000
01F0000000
01F0000000
01F0000000
01F0000000
01F0000000
01FFFFFFC0
01FFFFFFC0
01FFFFFFC0
01FFFFFFC0
01FFFFFFC0
ENDCHAR
STARTCHAR lslash
ENCODING -1
SWIDTH 284 0
DWIDTH 17 0
BBX 17 46 0 0
BITMAP
03E000
03E000
03E000
03E000
03E000
03E000
03E000
03E000
03E000
03E000
03E000
03E000
03E000
03E000
03E000
03E200
03E700
03FF00
03FF80
03FE00
03FC00
03F000
07E000
1FE000
3FE000
FFE000
7FE000
73E000
23E000
03E000
03E000
03E000
03E000
03E000
03E000
03E000
03E000
03E000
03E000
03E000
03E000
03E000
03E000
03E000
03E000
03E000
ENDCHAR
STARTCHAR Scaron
ENCODING -1
SWIDTH 634 0
DWIDTH 38 0
BBX 31 57 4 -1
BITMAP
03E01F00
01E01E00
00F03C00
00787800
007CF800
003FF000
001FE000
000FC000
00000000
00000000
00000000
003FFC00
01FFFFC0
07FFFFF0
0FFFFFF0
1FFFFFF0
3FE00FF0
7F0000F0
7E000010
7C000000
FC000000
F8000000
F8000000
F8000000
F8000000
F8000000
FC000000
FE000000
7F800000
7FF00000
3FFF8000
1FFFFC00
0FFFFF00
03FFFFC0
00FFFFE0
001FFFF0
00007FF8
000007FC
000001FC
000000FC
0000007E
0000007E
0000003E
0000003E
0000003E
0000003E
0000003E
0000007E
8000007C
E00000FC
FC0003F8
FFC00FF8
FFFFFFF0
FFFFFFE0
7FFFFF80
0FFFFE00
00FFF000
ENDCHAR
STARTCHAR scaron
ENCODING -1
SWIDTH 520 0
DWIDTH 31 0
BBX 25 49 3 -1
BITMAP
0F803E00
07803C00
03C07800
03E0F800
01F1F000
00F1E000
00FBE000
007FC000
003F8000
003F8000
001F0000
00000000
00000000
00000000
00FFC000
07FFFC00
1FFFFE00
3FFFFE00
7FFFFE00
7F803E00
FE000200
FC000000
F8000000
F8000000
F8000000
FC000000
FC000000
7F800000
7FF00000
3FFF0000
1FFFE000
07FFF800
01FFFE00
001FFE00
0001FF00
00003F00
00001F80
00000F80
00000F80
00000F80
00000F80
80001F80
F0003F00
FE00FF00
FFFFFE00
FFFFFC00
FFFFF800
3FFFE000
03FF8000
ENDCHAR
STARTCHAR Zcaron
ENCODING -1
SWIDTH 685 0
DWIDTH 41 0
BBX 36 56 3 0
BITMAP
007C03E000
003C03C000
001E078000
000F0F0000
000F9F0000
0007FE0000
0003FC0000
0001F80000
0000000000
0000000000
0000000000
0000000000
7FFFFFFFE0
7FFFFFFFE0
7FFFFFFFE0
7FFFFFFFE0
7FFFFFFFE0
0000000FC0
0000001F80
0000003F80
0000007F00
0000007E00
000000FC00
000001F800
000003F800
000007F000
00000FE000
00000FC000
00001F8000
00003F0000
00007F0000
0000FE0000
0000FC0000
0001F80000
0003F00000
0007F00000
000FE00000
001FC00000
001F800000
003F000000
007E000000
00FE000000
01FC000000
01F8000000
03F0000000
07E0000000
0FE0000000
1FC0000000
3F80000000
3F00000000
7E00000000
FFFFFFFFF0
FFFFFFFFF0
FFFFFFFFF0
FFFFFFFFF0
FFFFFFFFF0
ENDCHAR
STARTCHAR zcaron
ENCODING -1
SWIDTH 524 0
DWIDTH 32 0
BBX 26 48 3 0
BITMAP
0F803E00
07803C00
03C07800
03E0F800
01F1F000
00F1E000
00FBE000
007FC000
003F8000
003F8000
001F0000
00000000
00000000
00000000
00000000
7FFFFFC0
7FFFFFC0
7FFFFFC0
7FFFFFC0
7FFFFFC0
00001F80
00003F80
00007F00
0000FE00
0000FC00
0001F800
0003F000
0007F000
000FE000
001FC000
001F8000
003F0000
007E0000
00FE0000
01FC0000
03F80000
03F00000
07E00000
0FE00000
1FC00000
3F800000
7F000000
7E000000
FFFFFFC0
FFFFFFC0
FFFFFFC0
FFFFFFC0
FFFFFFC0
ENDCHAR
STARTCHAR minus
ENCODING -1
SWIDTH 837 0
DWIDTH 50 0
BBX 38 5 6 16
BITMAP
FFFFFFFFFC
FFFFFFFFFC
FFFFFFFFFC
FFFFFFFFFC
FFFFFFFFFC
ENDCHAR
STARTCHAR Gbreve
ENCODING -1
SWIDTH 774 0
DWIDTH 47 0
BBX 38 57 3 -1
BITMAP
001E007800
001F00F800
000F81F000
000FFFF000
0007FFE000
0003FFC000
0000FF0000
0000000000
0000000000
0000000000
0000000000
0000FFF000
0007FFFF00
001FFFFFC0
007FFFFFF0
01FFFFFFF8
03FF801FF8
07F80003F8
07F0000078
0FC0000018
1F80000008
1F00000000
3F00000000
3E00000000
7E00000000
7C00000000
7C00000000
7C00000000
F800000000
F800000000
F800000000
F800000000
F800000000
F80001FFFC
F80001FFFC
F80001FFFC
F80001FFFC
F80001FFFC
F80000007C
F80000007C
7C0000007C
7C0000007C
7C0000007C
7E0000007C
3E0000007C
3F0000007C
1F0000007C
1F8000007C
0FC000007C
0FF000007C
07FC0001FC
03FF800FFC
01FFFFFFF8
007FFFFFF0
003FFFFFC0
0007FFFE00
0000FFE000
ENDCHAR
STARTCHAR gbreve
ENCODING -1
SWIDTH 634 0
DWIDTH 38 0
BBX 29 60 3 -12
BITMAP
01E00780
01E00780
01F00F80
00F81F00
00FFFF00
007FFE00
003FFC00
000FF000
00000000
00000000
00000000
00000000
00000000
00000000
003F8000
01FFF0F8
03FFF8F8
07FFFCF8
0FFFFEF8
1FE03FF8
3F800FF8
3F0007F8
7E0003F8
7E0003F8
7C0001F8
7C0001F8
F80000F8
F80000F8
F80000F8
F80000F8
F80000F8
F80000F8
F80000F8
F80000F8
F80000F8
F80000F8
7C0001F8
7C0001F8
7E0003F8
7E0003F8
3F0007F8
3F800FF8
1FE03FF8
0FFFFEF8
07FFFCF8
03FFF8F8
01FFF0F8
003F80F8
000001F8
000001F0
000001F0
000003F0
080007E0
0E000FE0
0FC07FC0
0FFFFFC0
0FFFFF80
07FFFF00
01FFFC00
003FE000
ENDCHAR
STARTCHAR Idotaccent
ENCODING -1
SWIDTH 294 0
DWIDTH 18 0
BBX 6 55 6 0
BITMAP
FC
FC
FC
FC
FC
FC
00
00
00
00
00
F8
F8
F8
F8
F8
F8
F8
F8
F8
F8
F8
F8
F8
F8
F8
F8
F8
F8
F8
F8
F8
F8
F8
F8
F8
F8
F8
F8
F8
F8
F8
F8
F8
F8
F8
F8
F8
F8
F8
F8
F8
F8
F8
F8
ENDCHAR
STARTCHAR Scedilla
ENCODING -1
SWIDTH 634 0
DWIDTH 38 0
BBX 31 57 4 -12
BITMAP
003FFC00
01FFFFC0
07FFFFF0
0FFFFFF0
1FFFFFF0
3FE00FF0
7F0000F0
7E000010
7C000000
FC000000
F8000000
F8000000
F8000000
F8000000
F8000000
FC000000
FE000000
7F800000
7FF00000
3FFF8000
1FFFFC00
0FFFFF00
03FFFFC0
00FFFFE0
001FFFF0
00007FF8
000007FC
000001FC
000000FC
0000007E
0000007E
0000003E
0000003E
0000003E
0000003E
0000003E
0000007E
8000007C
E00000FC
FC0003F8
FFC00FF8
FFFFFFF0
FFFFFFE0
7FFFFF80
0FFFFE00
00FFF000
0000E000
0000F000
00007000
00007800
00007800
00007800
0040F800
007FF800
007FF000
007FE000
003FC000
ENDCHAR
STARTCHAR scedilla
ENCODING -1
SWIDTH 520 0
DWIDTH 31 0
BBX 25 46 3 -12
BITMAP
00FFC000
07FFFC00
1FFFFE00
3FFFFE00
7FFFFE00
7F803E00
FE000200
FC000000
F8000000
F8000000
F8000000
FC000000
FC000000
7F800000
7FF00000
3FFF0000
1FFFE000
07FFF800
01FFFE00
001FFE00
0001FF00
00003F00
00001F80
00000F80
00000F80
00000F80
00000F80
80001F80
F0003F00
FE00FF00
FFFFFE00
FFFFFC00
FFFFF800
3FFFE000
03FF8000
00038000
0003C000
0001C000
0001E000
0001E000
0001E000
0103E000
01FFE000
01FFC000
01FF8000
00FF0000
ENDCHAR
STARTCHAR Cacute
ENCODING -1
SWIDTH 698 0
DWIDTH 42 0
BBX 35 57 3 -1
BITMAP
000003F000
000003E000
000007C000
00000F8000
00001F0000
00001F0000
00003E0000
00007C0000
0000000000
0000000000
0000000000
0000FFE000
000FFFFC00
003FFFFF00
007FFFFFC0
01FFFFFFE0
03FF003FE0
07F80007E0
07F00001E0
0FC0000060
1F80000020
1F00000000
3F00000000
3E00000000
7E00000000
7C00000000
7C00000000
7C00000000
F800000000
F800000000
F800000000
F800000000
F800000000
F800000000
F800000000
F800000000
F800000000
F800000000
F800000000
F800000000
7C00000000
7C00000000
7C00000000
7E00000000
3E00000000
3F00000000
1F00000000
1F80000020
0FC0000060
07F00001E0
07F80007E0
03FF003FE0
01FFFFFFE0
007FFFFFC0
003FFFFF00
000FFFFC00
0000FFC000
ENDCHAR
STARTCHAR cacute
ENCODING -1
SWIDTH 549 0
DWIDTH 33 0
BBX 26 49 3 -1
BITMAP
00000FC0
00001F80
00003F00
00003E00
00007C00
0000F800
0001F000
0001F000
0003E000
0007C000
000F8000
00000000
00000000
00000000
000FF800
007FFE00
01FFFF80
03FFFFC0
07FFFFC0
0FF80FC0
1FC001C0
3F800040
3F000000
7E000000
7C000000
7C000000
FC000000
F8000000
F8000000
F8000000
F8000000
F8000000
F8000000
F8000000
F8000000
F8000000
FC000000
7C000000
7C000000
7E000000
3F000000
3F800040
1FC001C0
0FF80FC0
07FFFFC0
03FFFFC0
01FFFF80
007FFE00
000FF000
ENDCHAR
STARTCHAR Ccaron
ENCODING -1
SWIDTH 698 0
DWIDTH 42 0
BBX 35 57 3 -1
BITMAP
000F807C00
0007807800
0003C0F000
0001E1E000
0001F3E000
0000FFC000
00007F8000
00003F0000
0000000000
0000000000
0000000000
0000FFE000
000FFFFC00
003FFFFF00
007FFFFFC0
01FFFFFFE0
03FF003FE0
07F80007E0
07F00001E0
0FC0000060
1F80000020
1F00000000
3F00000000
3E00000000
7E00000000
7C00000000
7C00000000
7C00000000
F800000000
F800000000
F800000000
F800000000
F800000000
F800000000
F800000000
F800000000
F800000000
F800000000
F800000000
F800000000
7C00000000
7C00000000
7C00000000
7E00000000
3E00000000
3F00000000
1F00000000
1F80000020
0FC0000060
07F00001E0
07F80007E0
03FF003FE0
01FFFFFFE0
007FFFFFC0
003FFFFF00
000FFFFC00
0000FFC000
ENDCHAR
STARTCHAR ccaron
ENCODING -1
SWIDTH 549 0
DWIDTH 33 0
BBX 26 49 3 -1
BITMAP
01F007C0
00F00780
00780F00
007C1F00
003E3E00
001E3C00
001F7C00
000FF800
0007F000
0007F000
0003E000
00000000
00000000
00000000
000FF800
007FFE00
01FFFF80
03FFFFC0
07FFFFC0
0FF80FC0
1FC001C0
3F800040
3F000000
7E000000
7C000000
7C000000
FC000000
F8000000
F8000000
F8000000
F8000000
F8000000
F8000000
F8000000
F8000000
F8000000
FC000000
7C000000
7C000000
7E000000
3F000000
3F800040
1FC001C0
0FF80FC0
07FFFFC0
03FFFFC0
01FFFF80
007FFE00
000FF000
ENDCHAR
STARTCHAR dcroat
ENCODING -1
SWIDTH 634 0
DWIDTH 38 0
BBX 34 47 3 -1
BITMAP
000000F800
000000F800
000000F800
000000F800
0003FFFFC0
0003FFFFC0
0003FFFFC0
0003FFFFC0
000000F800
000000F800
000000F800
000000F800
003F80F800
01FFF0F800
03FFF8F800
07FFFCF800
0FFFFEF800
1FE03FF800
1F800FF800
3F0007F800
3E0003F800
7E0003F800
7C0001F800
7C0001F800
FC0001F800
F80000F800
F80000F800
F80000F800
F80000F800
F80000F800
F80000F800
F80000F800
F80000F800
F80000F800
FC0001F800
7C0001F800
7C0001F800
7E0003F800
3E0003F800
3F0007F800
1F800FF800
1FE03FF800
0FFFFEF800
07FFFCF800
03FFF8F800
01FFF0F800
003F800000
ENDCHAR
STARTCHAR periodcentered
ENCODING -1
SWIDTH 317 0
DWIDTH 19 0
BBX 5 7 6 18
BITMAP
F8
F8
F8
F8
F8
F8
F8
ENDCHAR
STARTCHAR Euro
ENCODING -1
SWIDTH 636 0
DWIDTH 38 0
BBX 35 46 0 -1
BITMAP
00001FF000
0000FFFE00
0001FFFF80
0007FFFFC0
000FFFFFE0
001FF00FE0
003FC003E0
003F0000E0
007E000060
00FC000020
00FC000000
00F8000000
01F8000000
01F0000000
01F0000000
01F0000000
7FFFFFF000
7FFFFFE000
7FFFFFE000
FFFFFFE000
03E0000000
03E0000000
03E0000000
03E0000000
03E0000000
03E0000000
7FFFFF0000
7FFFFE0000
7FFFFE0000
FFFFFE0000
01F0000000
01F0000000
01F0000000
01F8000000
00F8000000
00FC000000
00FC000020
007E000060
007F0000E0
003FC003E0
001FF00FE0
000FFFFFE0
0007FFFFC0
0003FFFF80
0000FFFE00
00001FF000
ENDCHAR
STARTCHAR c6459
ENCODING -1
SWIDTH 500 0
DWIDTH 30 0
BBX 18 6 6 38
BITMAP
FC0FC0
FC0FC0
FC0FC0
FC0FC0
FC0FC0
FC0FC0
ENDCHAR
STARTCHAR c6460
ENCODING -1
SWIDTH 500 0
DWIDTH 30 0
BBX 11 8 11 37
BITMAP
07E0
07C0
0F80
1F00
3E00
3E00
7C00
F800
ENDCHAR
STARTCHAR c6461
ENCODING -1
SWIDTH 500 0
DWIDTH 30 0
BBX 19 7 5 38
BITMAP
1F01E0
3FC1E0
7FF3E0
7FFFC0
F9FFC0
F07F80
F01F00
ENDCHAR
STARTCHAR c6462
ENCODING -1
SWIDTH 500 0
DWIDTH 30 0
BBX 11 8 8 37
BITMAP
FC00
7E00
3E00
1F00
0F80
0780
07C0
03E0
ENDCHAR
STARTCHAR c6463
ENCODING -1
SWIDTH 500 0
DWIDTH 30 0
BBX 18 8 6 37
BITMAP
03F000
07F800
0FFC00
1F3E00
1E1E00
3C0F00
780780
F807C0
ENDCHAR
STARTCHAR c6466
ENCODING -1
SWIDTH 500 0
DWIDTH 30 0
BBX 18 8 6 37
BITMAP
F807C0
780780
3C0F00
1E1E00
1F3E00
0FFC00
07F800
03F000
ENDCHAR
STARTCHAR c6467
ENCODING -1
SWIDTH 400 0
DWIDTH 24 0
BBX 20 25 2 20
BITMAP
001F00
003F00
007F00
007F00
00EF00
01EF00
03CF00
038F00
070F00
0F0F00
0E0F00
1C0F00
3C0F00
780F00
700F00
E00F00
FFFFF0
FFFFF0
FFFFF0
000F00
000F00
000F00
000F00
000F00
000F00
ENDCHAR
STARTCHAR c6468
ENCODING -1
SWIDTH 500 0
DWIDTH 30 0
BBX 18 7 6 38
BITMAP
F003C0
F807C0
7C0F80
7FFF80
3FFF00
1FFE00
07F800
ENDCHAR
STARTCHAR c6469
ENCODING -1
SWIDTH 500 0
DWIDTH 30 0
BBX 6 6 12 38
BITMAP
FC
FC
FC
FC
FC
FC
ENDCHAR
ENDFONT
